<?xml version="1.0" encoding="UTF-8" standalone="no"?>
<svg
   xmlns:dc="http://purl.org/dc/elements/1.1/"
   xmlns:cc="http://creativecommons.org/ns#"
   xmlns:rdf="http://www.w3.org/1999/02/22-rdf-syntax-ns#"
   xmlns:svg="http://www.w3.org/2000/svg"
   xmlns="http://www.w3.org/2000/svg"
   xmlns:sodipodi="http://sodipodi.sourceforge.net/DTD/sodipodi-0.dtd"
   xmlns:inkscape="http://www.inkscape.org/namespaces/inkscape"
   width="900"
   height="900"
   version="1.1"
   id="svg14"
   sodipodi:docname="0173.svg"
   inkscape:version="0.92.5 (2060ec1f9f, 2020-04-08)">
  <metadata
     id="metadata20">
    <rdf:RDF>
      <cc:Work
         rdf:about="">
        <dc:format>image/svg+xml</dc:format>
        <dc:type
           rdf:resource="http://purl.org/dc/dcmitype/StillImage" />
        <dc:title />
      </cc:Work>
    </rdf:RDF>
  </metadata>
  <defs
     id="defs18" />
  <sodipodi:namedview
     pagecolor="#ffffff"
     bordercolor="#666666"
     borderopacity="1"
     objecttolerance="10"
     gridtolerance="10"
     guidetolerance="10"
     inkscape:pageopacity="0"
     inkscape:pageshadow="2"
     inkscape:window-width="1168"
     inkscape:window-height="700"
     id="namedview16"
     showgrid="false"
     inkscape:zoom="0.19666667"
     inkscape:cx="-316.48256"
     inkscape:cy="600"
     inkscape:window-x="72"
     inkscape:window-y="27"
     inkscape:window-maximized="0"
     inkscape:current-layer="svg14" />
  <g
     id="g831"
     transform="translate(-277.25039,-51.115539)">
    <path
       inkscape:connector-curvature="0"
       id="path6"
       style="fill:#b0cddf;fill-opacity:1"
       d="m 693.432,168.928 c 41.67,26.37 76.08,65.38 97.1,116.32 18.59,45.06 19.79,100.44 -9.49,139.41 -23.49,31.26 -48.18,45.45 -54.9,85.24 -6.08,36.06 0.76,61.56 -23.34,96.28 -33.58,48.37 -98.06,76.78 -152.46,57.86 -60.61,-21.07 -71.76,-85.56 -131.73,-107.69 -44.49,-16.42 -125.08,-29.36 -132.74,-87.88 -7.46,-57.13 47.35,-113.52 61.08,-166.55 12.41,-47.93 -10.24,-87.92 40.94,-122.9 95.28,-65.13 216.85,-66.23 305.54,-10.09 z" />
  </g>
  <path
     inkscape:connector-curvature="0"
     d="m 160.78303,173.88356 c 10.053,-11.279 15.465,-26.58 14.727,-41.676 -0.223,-4.606 -1.458,-9.864 -5.558,-11.965 -3.645,-1.87 -8.08,-0.463 -11.802,1.252 -47.01,21.657 -60.177,81.354 -64.988,132.885 -9.315,99.889 -8.466,204.392 33.347,295.584 13.2,28.793 30.235,55.657 47.938,81.929 40.415,59.97 85.77,118.51 145.956,158.607 60.186,40.098 137.834,59.568 206.245,36.118 39.91,-13.68 74.775,-41.59 96.87,-77.537 20.276,-32.996 29.582,-71.43 45.596,-106.69 25.268,-55.657 66.738,-102.436 95.034,-156.626 9.117,-17.463 17.017,-37.268 12.54,-56.455 -4.478,-19.187 -26.624,-35.003 -44.198,-26.083 -0.678,-17.369 4.812,-43.537 -10.893,-51 -14.152,-6.724 -27.095,11.1 -32.464,25.818 -20.628,56.471 -36.316,114.804 -60.263,169.955 -23.947,55.15 -57.226,107.994 -105.764,143.47 -13.526,9.88 -33.013,18.114 -45.922,7.435 -11.433,-9.46 -9.555,-27.24 -6.193,-41.684 34.3,-147.466 114.659,-280.291 206.16,-400.911 18.337,-24.179 37.31,-48.186 50.802,-75.367 6.09,-12.257 9.409,-30.277 -2.54,-36.959 -15.644,-8.748 -31.409,14.556 -49.317,15.242 10.867,-17.695 13.654,-34.832 12.968,-55.588 -28.253,-0.6 -49.867,24.161 -65.82,47.482 -88.199,128.914 -136.53,280.171 -185.73,428.427 -6.586,19.855 -19.255,43.871 -40.063,41.65 -14.169,-1.51 -23.51,-15.07 -30.517,-27.473 -18.415,-32.593 -34.814,-68.127 -34.111,-105.55 0.798,-42.001 22.978,-80.452 47.062,-114.872 59.345,-84.81 134.472,-158.883 183.507,-250.049 7.788,-14.47 14.564,-33.330004 4.375,-46.221004 -12.96,-16.408 -39.035,-7.36 -57.218,2.959 11.982,-3.954 3.43,-29.317 -9.049,-31.23 -12.48,-1.912 -23.647,7.351 -32.576,16.271 -34.84,34.84 -64.662,74.295004 -94.365,113.604004 -35.68,47.234 -72.03,95.737 -89.399,152.33 -24.59,80.135 -8.38,166.446 -13.209,250.124 -0.403,6.914 -1.278,14.539 -6.424,19.179 -6.347,5.72 -16.322,4.331 -24.29,1.252 -26.04,-10.044 -44.756,-33.373 -57.767,-58.058 -26.795,-50.837 -34.171,-110.74 -25.68,-167.58 8.5,-56.84 32.25,-110.721 64.114,-158.547 11.279,-16.932 23.853,-39.026 12.531,-55.923 -13.355,-19.933 -53.873,-1.09 -73.652,12.471 z"
     style="fill:#fe7e36;stroke-width:0.85770977"
     id="path8" />
  <path
     inkscape:connector-curvature="0"
     id="path10"
     style="fill:#195684;stroke-width:0.67793632"
     d="m 884.26503,502.71656 c -10.21,-26.574 -45.656,-26.438 -64.754,-10.395 -3.092,2.602 -6.846,5.261 -9.357,8.434 -2.36,2.992 -7.595,8.268 -8.648,11.622 2.454,-7.83 0.243,-16.59 1.895,-24.64 1.5,-7.318 2.826,-18.981 -5.562,-23.42 -4.212,-2.227 -7.773,-5.494 -11.276,-8.726 -8.028,-7.39 -14.18,-15.393 -21.454,-23.124 4.506,-4.768 10.379,-8.763 15.518,-12.98 -9.625,3.417 -20.103,7.642 -29.721,11.058 a 86.335,86.335 0 0 0 25.066,-19.279 c -17.352,6.721 -34.918,16.364 -50.348,26.77 8.943,-9.74 17.938,-19.552 24.866,-30.81 -17.108,11.216 -31.547,34.013 -51.95,35.461 -36.752,2.611 -72.674,15.96 -102.208,37.984 -20.169,15.04 -37.187,33.83 -54.07,52.489 -9.798,10.827 -19.59,21.654 -29.387,32.488 -6.884,-2.277 -24.559,-22.083 -39.342,-26.942 -16.515,-5.428 -35.884,-0.935 -48.328,11.211 -17.954,17.527 -20.202,46.872 -26.002,70.036 -3.011,12.031 -5.834,25.542 0.518,36.197 6.11,10.251 10.873,21.216 16.487,31.733 5.646,10.562 15.038,19.33 23.101,27.916 4.63,4.93 9.99,6.937 16.58,8.019 21.88,3.594 44.03,-0.227 65.429,-5.112 12.901,-2.948 19.684,-7.098 28.991,-16.617 l 0.152,-0.05 c -1.288,43.71 0.46,86.749 4.737,130.275 0.594,-12.183 2.457,-24.43 5.561,-36.232 13.466,26.171 32.871,48.646 50.313,72.194 -7.102,-19.595 -12.798,-38.866 -16.528,-59.368 6.015,9.88 12.375,19.545 18.41,29.423 4.55,7.442 11.273,12.062 16.232,19.206 -1.3,-4.168 -2.569,-8.237 -2.382,-12.656 13.475,20.196 31.152,33.892 55.14,40.113 11.327,2.938 23.222,4.205 34.915,3.803 20.525,-0.705 40.329,-5.518 60.25,-9.389 23.76,-4.617 47.447,-9.724 70.77,-16.216 8.247,-2.298 16.833,-4.987 22.821,-11.11 4.86,-4.962 12.71,-26.468 -1.377,-19.878 -20.997,9.826 -14.578,2.463 -36.198,10.822 -11.052,4.275 -50.026,24.838 -61.735,26.654 -14.694,2.278 -29.9,0.915 -44.307,4.567 -5.806,1.472 -11.417,3.741 -17.324,4.733 -11.083,1.864 -22.37,-0.888 -33.272,-3.62 45.94,-2.91 88.859,-12.447 131.99,-28.54 4.803,-1.793 9.575,-3.752 13.923,-6.463 3.749,-2.332 7.165,-5.215 11.075,-7.257 3.915,-2.05 8.228,-3.21 12.39,-4.693 9.262,-3.309 21.621,-1.786 30.134,-6.71 8.18,-4.725 0.268,-6.297 -4.173,-9.625 7.476,-20.115 4.117,-42.969 -4.492,-62.625 -8.609,-19.656 -35.692,-53.562 -35.692,-53.562 -2.732,-13.232 -7.55,-24.838 -10.762,-37.963 a 109.62,109.62 0 0 0 26.095,-27.104 c 4.244,-6.294 7.834,-13.02 12.344,-19.125 3.404,-4.613 7.316,-8.831 10.832,-13.361 20.652,-26.612 26.19,-64.178 14.114,-95.616 z m -359.043,195.638 c -9.548,4.43 -20.041,6.393 -30.487,7.717 -8.382,1.058 -17.13,1.698 -25.07,-1.194 -3.571,-1.294 -6.863,-3.275 -9.906,-5.54 -12.995,-9.665 -21.454,-24.441 -26.316,-39.882 -4.869,-15.44 -6.459,-31.703 -8.018,-47.818 -0.453,-4.649 -0.894,-9.381 0.046,-13.957 1.52,-7.388 6.46,-13.54 11.24,-19.373 5.506,-6.718 11.062,-13.489 17.748,-19.033 1.232,-1.02 2.54,-2.023 4.09,-2.444 1.584,-0.432 3.265,-0.206 4.892,0.019 8.102,1.121 16.422,2.314 23.573,6.287 9.93,5.518 16.286,15.58 23.653,24.35 -1.232,0.524 -2.435,1.18 -3.556,1.848 a 217.683,217.683 0 0 0 -11.422,7.322 c -5.217,-4.941 -13.14,-7.8 -19.987,-8.493 -8.315,-0.832 -16.875,1.282 -23.936,5.755 -10.94,6.935 -18.084,20.276 -15.846,33.037 1.525,-7.463 3.135,-15.147 7.457,-21.415 4.645,-6.74 12.18,-11.244 20.198,-12.89 6.237,-1.28 12.785,-0.828 18.83,1.131 1.951,0.633 6.31,3.71 9.947,5.23 -1.501,1.119 -2.953,2.314 -4.22,3.693 -2.755,3.008 -4.579,6.733 -6.361,10.398 -2.886,5.927 -5.81,12.009 -6.548,18.561 -0.445,3.922 -0.08,7.9 0.503,11.805 0.84,5.643 2.172,11.28 4.791,16.349 2.62,5.067 6.634,9.553 11.806,11.955 -4.54,-4.237 -7.2,-10.18 -8.51,-16.257 -1.31,-6.07 -1.387,-12.335 -1.451,-18.547 -0.038,-3.536 -0.072,-7.099 0.62,-10.57 0.699,-3.473 2.113,-6.764 3.683,-9.942 3.106,-6.28 6.953,-12.339 12.328,-16.832 3.425,-2.863 7.518,-5.042 11.887,-5.996 1.219,-0.269 3.392,-0.042 5.376,-0.109 2.59,2.487 5.376,4.713 8.547,6.46 6.348,12.436 9.207,26.138 12.079,39.84 -2.888,5.66 -4.99,14.34 -5.278,15.325 -1.102,3.715 -2.214,7.457 -3.993,10.904 -1.97,3.823 -4.698,7.196 -7.41,10.533 -3.853,4.75 -7.714,9.495 -11.567,14.246 a 115.792,115.792 0 0 0 12.669,-11.775 c 1.671,-1.805 3.295,-3.673 4.668,-5.719 1.43,-2.14 2.576,-4.455 3.715,-6.761 0.956,-1.932 5.58,-9.808 9.28,-17.14 2.156,9.564 4.719,18.995 8.903,27.848 -4.494,9.499 -13.099,16.643 -22.647,21.074 z m 156.706,-104.417 c -4.676,2.392 -9.797,3.769 -14.95,4.795 -21.52,4.284 -44.061,3.38 -64.683,-4.122 5.06,-0.184 9.957,-1.741 14.834,-3.105 a 202.083,202.083 0 0 1 31.304,-6.108 c 1.94,3.396 5.48,4.408 9.377,4.746 4.24,0.37 8.535,-0.024 12.685,-0.988 3.957,-0.923 7.841,-2.39 11.128,-4.773 3.286,-2.384 5.953,-5.75 7.04,-9.668 a 130.325,130.325 0 0 1 14.031,-4.783 c -5.074,9.691 -11.025,19.029 -20.766,24.006 z m 84.04,-20.42 c -9.885,2.9 -21.136,0.601 -29.097,-5.93 3.73,-0.066 7.433,-0.62 10.984,-1.77 3.768,3.728 9.89,4.335 14.84,2.445 4.95,-1.89 9.222,-5.8 12.113,-10.241 4.173,-1.444 8.473,-3.284 12.45,-5.211 -3.172,9.805 -11.403,17.809 -21.29,20.708 z m 107.976,-34.315 a 70.462,70.462 0 0 1 -5.715,29.136 c -2.013,4.672 -4.53,9.114 -7.034,13.54 l -13.844,24.444 c -7.256,12.814 -15.735,27.61 -29.349,33.221 -0.06,-3.492 -1.564,-6.778 -3.043,-9.952 -0.863,-1.856 -1.727,-3.706 -2.59,-5.562 -0.374,-0.798 -0.498,-1.555 -0.864,-2.354 2.096,-1.66 3.194,-4.16 3.611,-6.838 a 27.952,27.952 0 0 0 3.177,-0.572 c 4.076,-0.963 8.12,-2.345 11.577,-4.72 3.457,-2.375 6.293,-5.828 7.294,-9.9 -3.844,4.77 -9.154,8.296 -14.98,10.145 -2.215,0.705 -4.554,1.206 -6.893,1.393 a 19.725,19.725 0 0 0 -0.174,-1.781 c -1.73,-11.8 -12.415,-21.662 -24.318,-22.444 a 197.368,197.368 0 0 0 8.17,-38.822 c 8.3,-5.556 18.175,-13.937 21.09,-15.278 a 72.964,72.964 0 0 1 13.113,-4.574 c 0.858,1.046 1.752,2.053 2.763,2.945 1.577,1.39 3.403,2.5 4.857,4.019 2.287,2.396 3.436,5.551 4.203,8.83 a 72.79,72.79 0 0 1 0.782,3.918 c 1.24,6.868 -0.454,14.663 -1.616,21.514 -1.232,7.275 -2.626,14.56 -5.008,21.544 6.35,-9.054 9.085,-20.243 9.62,-31.287 0.494,-10.16 -1.023,-21.002 -7.467,-28.872 -0.74,-0.908 -2.275,-2.35 -3.756,-3.552 a 68.998,68.998 0 0 1 7.243,-0.933 c 6.034,-0.447 12.342,-0.071 17.684,2.763 -1.944,-3.26 -5.746,-4.918 -9.419,-5.888 -9.719,-2.575 -20.31,-1.713 -29.491,2.405 -3.017,1.352 -5.875,3.035 -8.653,4.824 -2.454,1.577 -9.16,6.735 -15.422,11.79 0.223,-2.896 0.411,-5.795 0.51,-8.704 10.777,-9.857 21.525,-18.605 34.053,-26.11 6.497,-3.893 14.296,-7.54 21.38,-4.862 2.604,0.985 4.837,2.76 6.786,4.75 8.097,8.276 11.504,20.247 11.723,31.824 z" />
  <path
     inkscape:connector-curvature="0"
     id="path12"
     style="fill:#f13e44;fill-opacity:1"
     d="m 779.44859,240.34924 a 368.483,368.483 0 0 0 -63.59,-24.13 310.652,310.652 0 0 0 66.55,45.73 c -14.43,6.49 -29.07,12.93 -42.61,21.13 14.87,-3.03 29.27,-6.29 44.13,-9.38 -20.36,23.62 -34.31,52.21 -56.24,74.39 25.91,-18.23 49.33,-40.99 68.51,-66.21 0.35,15.84 1.17,31.58 2.38,47.38 4.69,-12.45 9.31,-28.6 11.11,-41.78 12.99,19.06 27.33,39.16 40.31,58.22 -8.28,-21.35 -19.44,-42.8 -31.47,-62.29 18.78,-3.07 37.59,-8.87 54.11,-18.32 -12.23,-3.86 -27.35,-4.09 -40.1,-2.69 25.35,-14.33 45.43,-30.37 67.32,-49.58 -27.78,8.42 -51.56,22.77 -78.86,32.61 15.25,-21.13 31.85,-42.84 49.69,-61.83 -20.01,14.92 -40.04,32.04 -55.12,51.93 5.17,-23.13 7.25,-46.47 8.54,-70.14 -7.05,22.47 -15.43,48.23 -22.48,70.69 -4.43,-8.15 -11.84,-17.46 -17.71,-24.64 -10.56,-12.91 -21.11,-25.83 -31.67,-38.74 7.02,14.28 14.47,29.68 20.88,44.25 2.74,6.19 7.07,16.67 6.32,23.4 z" />
</svg>
