<?xml version="1.0" encoding="UTF-8" standalone="no"?>
<!-- Created with svg_stack (http://github.com/astraw/svg_stack) -->

<svg
   xmlns:dc="http://purl.org/dc/elements/1.1/"
   xmlns:cc="http://creativecommons.org/ns#"
   xmlns:rdf="http://www.w3.org/1999/02/22-rdf-syntax-ns#"
   xmlns:svg="http://www.w3.org/2000/svg"
   xmlns="http://www.w3.org/2000/svg"
   xmlns:sodipodi="http://sodipodi.sourceforge.net/DTD/sodipodi-0.dtd"
   xmlns:inkscape="http://www.inkscape.org/namespaces/inkscape"
   version="1.1"
   width="1000.0"
   height="1000.0"
   id="svg26"
   sodipodi:docname="0250.svg"
   inkscape:version="0.92.5 (2060ec1f9f, 2020-04-08)">
  <metadata
     id="metadata30">
    <rdf:RDF>
      <cc:Work
         rdf:about="">
        <dc:format>image/svg+xml</dc:format>
        <dc:type
           rdf:resource="http://purl.org/dc/dcmitype/StillImage" />
      </cc:Work>
    </rdf:RDF>
  </metadata>
  <sodipodi:namedview
     pagecolor="#ffffff"
     bordercolor="#666666"
     borderopacity="1"
     objecttolerance="10"
     gridtolerance="10"
     guidetolerance="10"
     inkscape:pageopacity="0"
     inkscape:pageshadow="2"
     inkscape:window-width="786"
     inkscape:window-height="480"
     id="namedview28"
     showgrid="false"
     inkscape:zoom="0.236"
     inkscape:cx="165.25424"
     inkscape:cy="500"
     inkscape:window-x="72"
     inkscape:window-y="27"
     inkscape:window-maximized="0"
     inkscape:current-layer="svg26" />
  <defs
     id="defs2" />
  <g
     id="id0:id0">
    <path
       style="opacity:1;fill:#efe2cf"
       d="M 0,0 H 1000 V 1000 H 0 Z"
       id="path4"
       inkscape:connector-curvature="0" />
  </g>
  <g
     id="id1:id1"
     transform="translate(-177.67245,-163.80894)">
    <path
       d="m 722.63,330.82 c 96.1,38.03 164.23,125.29 187.72,220.04 22.59,91.1 4.61,193.62 -61.51,263.96 -66.12,70.34 -183.53,99.77 -272.71,56.85 C 532.95,850.89 498.76,815.74 454.17,797.74 406.88,778.65 348.56,778.91 311.96,745.1 271.43,707.66 276.29,645.68 291.28,594.39 342.21,420.19 505.78,245 722.63,330.82 Z"
       style="fill:#c1d8d2"
       id="path7"
       inkscape:connector-curvature="0" />
  </g>
  <g
     id="id2:id2"
     transform="translate(58.922666,101.51364)">
    <path
       d="m 115.288,703.489 c 55.059,-4.301 87.52,-3.78 120.766,13.848 33.243,17.637 59.175,48.595 70.699,84.424 3.636,11.304 6.707,24.197 16.768,30.496 10.06,6.299 27.684,-3.297 22.452,-13.947 5.414,9.92 22.344,7.307 27.477,-2.764 5.134,-10.07 0.757,-22.782 -6.928,-31.072 -7.685,-8.289 -18.087,-13.402 -27.675,-19.38 a 161.76,161.76 0 0 1 -33.93,-28.236 c -2.08,-2.27 -4.224,-5.013 -3.844,-8.076 0.513,-4.134 5.198,-6.247 9.27,-7.082 26.15,-5.367 51.689,9.215 75.36,21.549 15.646,8.155 33.434,15.981 51.426,15.89 8.797,-0.041 14.623,0.259 19.508,-7.633 1.601,-2.584 6.576,-14.475 -0.599,-13.575 16.227,-2.033 31.245,-19.034 25.163,-34.22 -6.164,-15.37 -26.708,-17.393 -43.277,-17.223 -16.568,0.17 -37.26,-2.718 -42.417,-18.458 -5.846,-17.84 15.442,-33.717 34.209,-34.32 34.198,-1.108 72.446,10.747 105.49,18.573 a 770.525,770.525 0 0 1 88.518,26.663 c 7.414,2.723 14.956,2.087 22.675,0.405 7.719,-1.681 15.153,-6.376 18.313,-13.606 3.173,-7.236 0.837,-16.969 -6.175,-20.606 22.334,11.585 44.63,-33.597 22.085,-49.997 -34.43,-25.037 -79.9,7.202 -118.352,-0.6 -24.78,-5.025 -17.95,-28.276 -1.604,-39.478 76.668,-52.542 178.405,-24.951 261.17,-64.683 10.145,-4.865 20.423,-10.885 26.09,-20.603 5.668,-9.717 4.859,-24.034 -4.485,-30.292 10.026,0.054 19.116,-14.411 17.846,-24.357 -3.993,-31.405 -41.915,-21.844 -57.745,-9.188 -23.925,19.124 -48.567,37.13 -74.61,53.29 -8.264,5.126 -16.862,10.166 -26.413,11.98 -9.56,1.812 -20.39,-0.192 -26.92,-7.39 -24.608,-27.122 40.86,-63.941 55.806,-74.42 38.802,-27.194 77.613,-54.384 116.415,-81.578 12.976,-9.088 26.617,-18.999 32.51,-33.702 5.894,-14.703 -0.185,-35.286 -15.658,-38.702 6.438,-4.864 13.378,-14.367 15.383,-22.178 2.006,-7.81 -0.57,-17.157 -7.509,-21.27 -8.108,-4.804 -19.047,-0.925 -25.4,6.026 -6.361,6.948 -9.378,16.222 -12.797,25.002 a 221.637,221.637 0 0 1 -28.223,51.185 c -5.686,7.706 -15.789,15.74 -23.698,10.338 -3.953,-2.706 -5.366,-7.815 -6.082,-12.555 -4.955,-32.628 1.944,-64.993 7.5,-97.043 2.83,-16.336 3.044,-33.794 6.736,-49.819 3.33,-14.449 11.138,-26.437 0.723,-40.64 -6.091,-8.307 -21.045,-10.341 -25.853,-1.232 2.79,-15.264 -8.851,-32.923 -20.671,-42.979 -9.993,-8.5 -27.835,-14.194 -36.283,-0.1 -7.25,12.099 2.524,33.251 7.17,44.594 14.805,36.118 23.876,74.965 24.918,114.049 1.167,43.93 -8.28,77.85 -31.235,114.813 -3.95,6.35 -10.553,13.422 -17.563,10.83 -6.66,-2.46 -7.48,-11.362 -7.383,-18.46 a 351.983,351.983 0 0 0 -5.924,-69.379 c -2.648,-14.196 -6.596,-29.002 -16.862,-39.143 -3.712,-3.666 -8.471,-6.695 -13.688,-6.709 -10.014,-0.028 -16.464,10.283 -20.902,19.26 -0.566,-12.56 -18.988,-13.393 -26.73,-6.707 -10.671,9.213 -2.96,24.55 2.188,35.86 17.525,38.497 56.257,81.64 38.851,126.398 -12.706,32.667 -31.626,62.914 -55.441,88.634 -6.034,6.52 -12.594,12.898 -20.75,16.431 -9.007,3.906 -20.23,3.78 -27.303,-3.66 12.587,-48.246 17.312,-101.398 14.84,-151.194 -0.42,-8.406 -1.345,-17.51 -7.08,-23.668 -5.735,-6.158 -17.957,-6.445 -21.187,1.315 8.155,-19.657 -37.156,-20.131 -43.695,1.448 -1.853,6.12 -1.334,12.68 -0.463,19.01 4.23,30.547 16.448,59.57 20.59,90.129 6.621,48.8 -23.145,111.8 -64.478,138.705 -12.175,7.926 -30.645,12.528 -39.5,1.01 -8.489,-11.044 -0.623,-26.76 7.243,-38.259 l 38.722,-56.647 c 7.91,-11.566 16.156,-24.3 15.257,-38.272 -0.898,-13.972 -16.175,-27.376 -28.577,-20.865 -0.99,-17 -25.78,-27.114 -40.3,-18.21 -14.515,8.917 -20.64,26.734 -24.001,43.428 -7.316,36.313 -6.652,73.844 -13.517,110.242 -6.865,36.397 -23.167,73.594 -54.762,92.944 -6.76,4.136 -14.657,7.436 -22.456,5.999 -42.06,-7.756 55.03,-85.542 16.878,-105.842 -5.917,-3.151 -13.572,-2.7 -19.082,1.12 11.486,-7.959 -21.855,-25.734 -33.987,-19.307 -18.22,9.66 -13.833,36.315 -15.141,54.425 -3.943,54.385 -7.624,98.473 -107.86,149.013 z"
       style="fill:#fdadca;stroke-width:0.98591024"
       id="path10"
       inkscape:connector-curvature="0" />
  </g>
  <g
     id="id3:id3"
     transform="matrix(1.0,0,0,1.0,0.0,0.0)">
    <sodipodi:namedview
       pagecolor="#ffffff"
       bordercolor="#666666"
       borderopacity="1"
       objecttolerance="10"
       gridtolerance="10"
       guidetolerance="10"
       inkscape:pageopacity="0"
       inkscape:pageshadow="2"
       inkscape:window-width="786"
       inkscape:window-height="480"
       id="namedview6"
       showgrid="false"
       inkscape:zoom="0.236"
       inkscape:cx="500"
       inkscape:cy="500"
       inkscape:window-x="72"
       inkscape:window-y="27"
       inkscape:window-maximized="0"
       inkscape:current-layer="svg4" />
  </g>
  <g
     id="id4:id4"
     transform="translate(-180.85672,-357.95607)">
    <g
       id="g17">
      <path
         d="m 338.26,731.22 1.17,-2.61 73.4,-156.64 c 1.08,-2.24 4.3,-2.44 5.59,-0.3 19.95,32.56 38.95,73.84 36.22,101.43 -1.18,11.35 -6.54,27.22 -12.96,42.08 -0.8,2.13 -1.68,4.27 -2.71,6.35 -0.46,0.93 -1.38,1.55 -2.45,1.69 l -94.94,12.47 c -2.54,0.34 -4.4,-2.23 -3.32,-4.47 z m 418.17,-4.36 c 0.18,1.35 -0.45,2.59 -1.53,3.23 -6.77,4 -29.79,18.5 -38.08,33.97 -21.24,39.56 -34.26,93.85 -78.64,99.68 L 453.13,888.05 C 387.52,896.67 327.4,850.32 318.75,784.49 l -0.28,-2.13 c -0.22,-1.7 1.01,-3.31 2.79,-3.54 l 103.11,-13.54 c 2.06,-0.27 3.79,1.38 3.92,3.46 0.1,6.78 2.28,13.5 6.29,19.33 7.74,11.62 21.47,17.7 35.17,15.9 l 51.06,-6.71 -5.23,-39.84 -50.49,6.63 c -2.56,0.34 -4.51,-2.44 -3.3,-4.77 0.46,-0.93 0.91,-1.85 1.49,-2.94 3.86,-7.44 9.3,-18.85 14.54,-31.74 3.55,-8.7 6.89,-17.95 9.37,-27.09 0.5,-1.66 0.86,-3.36 1.29,-5.01 0.63,-2.9 1.28,-5.66 1.65,-8.31 0.42,-2.29 0.76,-4.65 1.05,-6.86 0.73,-7.61 0.42,-15.51 -0.64,-23.61 -0.42,-3.2 -1,-6.51 -1.69,-9.6 -0.6,-3.46 -1.48,-6.88 -2.37,-10.31 -0.69,-3.02 -1.65,-5.99 -2.63,-9.04 -1.39,-4.51 -2.99,-9 -4.73,-13.46 l -0.66,-1.72 c -1.27,-3.08 -2.44,-5.96 -3.86,-9.03 -4.22,-9.56 -8.76,-18.86 -13.51,-27.48 -1.75,-3.45 -3.63,-6.75 -5.57,-9.96 -2.82,-4.97 -5.65,-9.44 -8.22,-13.66 -1.34,-1.92 -2.43,-3.65 -3.53,-5.46 -1.27,-2 -2.55,-4 -3.88,-5.92 -0.92,-1.47 -1.96,-2.85 -2.72,-4.19 l -7.76,-10.68 c -1.06,-1.45 0.11,-3.55 1.88,-3.28 l 40.44,5.45 0.14,-0.02 0.14,-0.02 5.31,0.82 5.89,0.82 2.13,0.3 -3.04,-23.15 c -1.47,-11.22 6.28,-21.48 17.43,-22.95 5.54,-0.73 10.88,0.88 14.91,4.11 4.11,3.22 7.04,7.96 7.78,13.57 l 4.52,34.44 4.34,0.59 c 0.3,0.1 0.68,0.2 0.99,0.38 1.09,0.58 2.73,1.52 4.76,2.7 1.64,0.94 3.39,2.16 5.43,3.4 4.16,2.56 9.22,5.87 14.71,9.7 1.43,0.97 2.85,1.94 4.22,2.99 7.09,5.06 15.1,11.02 22.92,17.79 2.21,1.95 4.33,3.84 6.56,5.93 2.15,2.1 4.51,4.1 6.51,6.15 2.74,2.75 5.58,5.62 8.22,8.67 1.2,1.43 2.62,2.91 3.75,4.35 3.39,3.82 6.37,7.83 9.29,11.85 1.26,1.86 2.54,3.93 3.67,5.95 3.39,5.48 6.23,11.1 8.29,16.9 a 19.6,19.6 0 0 1 1.37,3.79 l 0.04,0.28 c 0.65,1.65 1.03,3.48 1.43,5.37 1.36,5.96 1.88,12.11 1.4,18.38 -0.23,2.63 -0.63,5.14 -1.13,7.88 -0.6,2.61 -1.11,5.27 -1.92,7.91 -1.54,5.33 -3.42,10.78 -5.86,15.87 -0.76,1.91 -1.73,3.91 -2.63,5.84 -1.04,2.01 -2.15,3.97 -3.06,5.82 -1.34,2.42 -2.75,4.91 -4.25,7.2 -1.28,2.34 -2.56,4.67 -4.09,6.82 -2.03,3.23 -4.02,6.23 -6.16,9.19 -1.2,1.89 -2.53,3.87 -3.95,5.65 -1.33,1.98 -2.76,3.76 -3.99,5.36 -2.16,2.81 -3.9,4.92 -5.39,6.78 l -3.57,4.15 c -0.49,0.64 -1.24,1.03 -2.02,1.13 l -31.1,4.09 5.23,39.84 39.13,-5.14 c 8.73,-1.15 16.64,-5.29 22.63,-11.93 2.01,-2.29 10.89,-12.26 21.03,-26.89 0.36,-0.55 0.82,-0.9 1.37,-1.12 l 103.9,-45.43 c 1.98,-0.84 4.17,0.39 4.45,2.52 z"
         style="fill:#a0a3aa"
         transform="rotate(16.333,537.453,685.044)"
         id="path15"
         inkscape:connector-curvature="0" />
    </g>
  </g>
  <g
     id="id5:id5"
     transform="matrix(1.0,0,0,1.0,0.0,0.0)">
    <sodipodi:namedview
       pagecolor="#ffffff"
       bordercolor="#666666"
       borderopacity="1"
       objecttolerance="10"
       gridtolerance="10"
       guidetolerance="10"
       inkscape:pageopacity="0"
       inkscape:pageshadow="2"
       inkscape:window-width="786"
       inkscape:window-height="480"
       id="namedview20"
       showgrid="false"
       inkscape:zoom="0.236"
       inkscape:cx="500"
       inkscape:cy="500"
       inkscape:window-x="72"
       inkscape:window-y="27"
       inkscape:window-maximized="0"
       inkscape:current-layer="svg4" />
  </g>
  <g
     id="id6:id6"
     transform="matrix(1.0,0,0,1.0,0.0,0.0)">
    <sodipodi:namedview
       pagecolor="#ffffff"
       bordercolor="#666666"
       borderopacity="1"
       objecttolerance="10"
       gridtolerance="10"
       guidetolerance="10"
       inkscape:pageopacity="0"
       inkscape:pageshadow="2"
       inkscape:window-width="786"
       inkscape:window-height="480"
       id="namedview23"
       showgrid="false"
       inkscape:zoom="0.236"
       inkscape:cx="500"
       inkscape:cy="500"
       inkscape:window-x="72"
       inkscape:window-y="27"
       inkscape:window-maximized="0"
       inkscape:current-layer="svg4" />
  </g>
</svg>
