<?xml version="1.0" encoding="UTF-8" standalone="no"?>
<!-- Created with svg_stack (http://github.com/astraw/svg_stack) -->

<svg
   xmlns:dc="http://purl.org/dc/elements/1.1/"
   xmlns:cc="http://creativecommons.org/ns#"
   xmlns:rdf="http://www.w3.org/1999/02/22-rdf-syntax-ns#"
   xmlns:svg="http://www.w3.org/2000/svg"
   xmlns="http://www.w3.org/2000/svg"
   xmlns:sodipodi="http://sodipodi.sourceforge.net/DTD/sodipodi-0.dtd"
   xmlns:inkscape="http://www.inkscape.org/namespaces/inkscape"
   version="1.1"
   width="1000.0"
   height="1000.0"
   id="svg24"
   sodipodi:docname="0281.svg"
   inkscape:version="0.92.5 (2060ec1f9f, 2020-04-08)">
  <metadata
     id="metadata28">
    <rdf:RDF>
      <cc:Work
         rdf:about="">
        <dc:format>image/svg+xml</dc:format>
        <dc:type
           rdf:resource="http://purl.org/dc/dcmitype/StillImage" />
      </cc:Work>
    </rdf:RDF>
  </metadata>
  <sodipodi:namedview
     pagecolor="#ffffff"
     bordercolor="#666666"
     borderopacity="1"
     objecttolerance="10"
     gridtolerance="10"
     guidetolerance="10"
     inkscape:pageopacity="0"
     inkscape:pageshadow="2"
     inkscape:window-width="786"
     inkscape:window-height="480"
     id="namedview26"
     showgrid="false"
     inkscape:zoom="0.236"
     inkscape:cx="165.25424"
     inkscape:cy="478.81356"
     inkscape:window-x="72"
     inkscape:window-y="27"
     inkscape:window-maximized="0"
     inkscape:current-layer="svg24" />
  <defs
     id="defs2" />
  <g
     id="id0:id0"
     transform="translate(0.0,0.0)">
    <path
       style="opacity:1;fill:#4982ae;"
       d="M0 0h1000v1000H0Z"
       id="path4" />
  </g>
  <g
     id="id1:id1"
     transform="translate(-224.57627,-216.10169)">
    <path
       d="m 382.10119,545.97458 c -6.68,39.01 -9.21,79.41 -0.15,117.94 13.77,58.51 52.68,107.38 90.5,154.1 22.18,27.4 45.1,55.43 75.71,72.91 32.28,18.43 70.34,23.51 107.42,26.04 57.66,3.93 116.77,2.36 171.42,-16.44 54.65,-18.8 104.71,-56.79 127.69,-109.82 8.29,-19.13 12.9,-39.64 16.37,-60.2 11.19,-66.11 8.03,-142.04 -39.56,-189.27 -32.85,-32.6 -80.07,-44.75 -123.91,-59.57 -58.63,-19.82 -117.35,-48.54 -153.86,-98.51 -17.03,-23.31 -29.48,-51.38 -53.63,-67.19 -127.2,-83.31 -204.24,149.69 -218,230.01 z"
       style="fill:#fdadca"
       id="path7"
       inkscape:connector-curvature="0" />
  </g>
  <g
     id="id2:id2"
     transform="translate(97.457627,8.4745763)">
    <path
       d="m 695.279,696.627 c 10.075,-38.06 25.83,-195.944 17.918,-235.94 -14.49,-73.242 -56.746,-137.664 -100.58,-198.117 -27.043,-37.292 -55.333,-74.21 -90.445,-104.026 -9.91,-8.418 -20.709,-16.714 -26.004,-28.587 -11.096,-24.879 8.784,-55.314 34.806,-63.384 26.022,-8.069 54.425,0.855 78.17,14.22 43.382,24.416 77.42,63.366 101.584,106.896 82.505,148.654 76.713,349.536 33.166,509.357 -10.39,38.12 -22.175,76.26 -41.68,110.62 -20.125,35.452 -50.788,77.071 -88.542,95.303 -35.827,17.299 -80.342,1.396 -117.007,-4.562 -44.76,-7.267 -89.318,-16.644 -132.202,-31.596 -59.747,-20.823 -116.649,-53.073 -158.67,-100.371 -13.154,-14.804 -13.817,-44.297 3.333,-54.198 17.15,-9.901 39.656,-4.04 55.55,7.772 15.894,11.812 27.2,28.604 40.302,43.469 12.701,14.402 56.222,62.581 78.231,40.153 24.6,-25.062 -33.524,-57.975 -49.016,-68.906 A 338.54,338.54 0 0 1 272.99,679.198 c -14.01,-16.243 -27.13,-37.816 -19.741,-57.95 6.882,-18.746 30.13,-27.548 49.688,-23.51 19.558,4.04 35.644,17.901 48.633,33.08 41.723,48.772 61.334,115.61 110.97,156.296 14.184,11.629 35.32,20.57 50.02,9.605 14.585,-10.887 12.238,-33.15 7.432,-50.71 -23.44,-85.61 -70.52,-164.626 -134.654,-226.004 -13.617,-13.024 -28.622,-29.197 -36.141,-46.478 -7.52,-17.281 -8.375,-38.348 1.675,-54.286 10.014,-15.876 29.537,-24.233 48.31,-23.84 18.772,0.392 36.716,8.548 51.816,19.714 47.927,35.452 67.694,97.554 76.025,156.585 8.33,59.03 8.357,120.103 29.205,175.967 7.215,19.314 19.925,25.839 34.31,9.308 24.8,-28.508 18.345,-97.684 16.286,-132.865 -2.408,-41.114 -7.764,-90.793 -25.9,-128.382 -18.066,-37.432 -44.602,-71.4 -74.236,-100.153 -28.638,-27.793 -66.594,-50.596 -80.377,-90.112 -3.768,-10.817 -5.295,-23.056 -0.697,-33.55 6.324,-14.411 22.628,-21.957 38.234,-23.998 50.08,-6.543 95.39,30.2 126.829,69.734 46.26,58.176 78.45,130.301 76.556,204.607 -1.753,68.984 -32.285,134.906 -33.253,203.908 -0.114,8.252 0.296,16.889 4.344,24.094 12.98,23.038 36.019,-8.488 43.12,-20.5 6.56,-11.122 10.869,-21.94 13.835,-33.131 z"
       style="fill:#a0a3aa;stroke-width:0.87233597"
       id="path10"
       inkscape:connector-curvature="0" />
  </g>
  <g
     id="id3:id3"
     transform="matrix(1.0,0,0,1.0,0.0,0.0)">
    <sodipodi:namedview
       pagecolor="#ffffff"
       bordercolor="#666666"
       borderopacity="1"
       objecttolerance="10"
       gridtolerance="10"
       guidetolerance="10"
       inkscape:pageopacity="0"
       inkscape:pageshadow="2"
       inkscape:window-width="786"
       inkscape:window-height="480"
       id="namedview6"
       showgrid="false"
       inkscape:zoom="0.236"
       inkscape:cx="500"
       inkscape:cy="500"
       inkscape:window-x="72"
       inkscape:window-y="27"
       inkscape:window-maximized="0"
       inkscape:current-layer="svg4" />
  </g>
  <g
     id="id4:id4"
     transform="matrix(1.0,0,0,1.0,0.0,0.0)">
    <sodipodi:namedview
       pagecolor="#ffffff"
       bordercolor="#666666"
       borderopacity="1"
       objecttolerance="10"
       gridtolerance="10"
       guidetolerance="10"
       inkscape:pageopacity="0"
       inkscape:pageshadow="2"
       inkscape:window-width="786"
       inkscape:window-height="480"
       id="namedview15"
       showgrid="false"
       inkscape:zoom="0.236"
       inkscape:cx="500"
       inkscape:cy="500"
       inkscape:window-x="72"
       inkscape:window-y="27"
       inkscape:window-maximized="0"
       inkscape:current-layer="svg4" />
  </g>
  <g
     id="id5:id5"
     transform="matrix(1.0,0,0,1.0,0.0,0.0)">
    <sodipodi:namedview
       pagecolor="#ffffff"
       bordercolor="#666666"
       borderopacity="1"
       objecttolerance="10"
       gridtolerance="10"
       guidetolerance="10"
       inkscape:pageopacity="0"
       inkscape:pageshadow="2"
       inkscape:window-width="786"
       inkscape:window-height="480"
       id="namedview18"
       showgrid="false"
       inkscape:zoom="0.236"
       inkscape:cx="500"
       inkscape:cy="500"
       inkscape:window-x="72"
       inkscape:window-y="27"
       inkscape:window-maximized="0"
       inkscape:current-layer="svg4" />
  </g>
  <g
     id="id6:id6"
     transform="matrix(1.0,0,0,1.0,0.0,0.0)">
    <sodipodi:namedview
       pagecolor="#ffffff"
       bordercolor="#666666"
       borderopacity="1"
       objecttolerance="10"
       gridtolerance="10"
       guidetolerance="10"
       inkscape:pageopacity="0"
       inkscape:pageshadow="2"
       inkscape:window-width="786"
       inkscape:window-height="480"
       id="namedview21"
       showgrid="false"
       inkscape:zoom="0.236"
       inkscape:cx="500"
       inkscape:cy="500"
       inkscape:window-x="72"
       inkscape:window-y="27"
       inkscape:window-maximized="0"
       inkscape:current-layer="svg4" />
  </g>
</svg>
