<?xml version="1.0" encoding="UTF-8" standalone="no"?>
<!-- Created with svg_stack (http://github.com/astraw/svg_stack) -->

<svg
   xmlns:dc="http://purl.org/dc/elements/1.1/"
   xmlns:cc="http://creativecommons.org/ns#"
   xmlns:rdf="http://www.w3.org/1999/02/22-rdf-syntax-ns#"
   xmlns:svg="http://www.w3.org/2000/svg"
   xmlns="http://www.w3.org/2000/svg"
   xmlns:sodipodi="http://sodipodi.sourceforge.net/DTD/sodipodi-0.dtd"
   xmlns:inkscape="http://www.inkscape.org/namespaces/inkscape"
   version="1.1"
   width="1000.0"
   height="1000.0"
   id="svg24"
   sodipodi:docname="0410.svg"
   inkscape:version="0.92.5 (2060ec1f9f, 2020-04-08)">
  <metadata
     id="metadata28">
    <rdf:RDF>
      <cc:Work
         rdf:about="">
        <dc:format>image/svg+xml</dc:format>
        <dc:type
           rdf:resource="http://purl.org/dc/dcmitype/StillImage" />
      </cc:Work>
    </rdf:RDF>
  </metadata>
  <sodipodi:namedview
     pagecolor="#ffffff"
     bordercolor="#666666"
     borderopacity="1"
     objecttolerance="10"
     gridtolerance="10"
     guidetolerance="10"
     inkscape:pageopacity="0"
     inkscape:pageshadow="2"
     inkscape:window-width="786"
     inkscape:window-height="480"
     id="namedview26"
     showgrid="false"
     inkscape:zoom="0.236"
     inkscape:cx="458.57932"
     inkscape:cy="500"
     inkscape:window-x="72"
     inkscape:window-y="27"
     inkscape:window-maximized="0"
     inkscape:current-layer="svg24" />
  <defs
     id="defs2" />
  <g
     id="id0:id0">
    <path
       style="opacity:1;fill:#b2c648"
       d="M 0,0 H 1000 V 1000 H 0 Z"
       id="path4"
       inkscape:connector-curvature="0" />
  </g>
  <g
     id="id1:id1"
     transform="translate(-0.01417398,-38.493505)">
    <path
       d="m 248.911,358.002 c 51.072,29.65 112.197,53.51 137.134,107.046 28.262,60.696 -2.702,130.57 -25.933,193.375 -101.53,274.56 450.203,357.884 477.46,5.058 C 845.927,555.293 847.68,429.893 765.818,358.668 683.791,287.307 557.495,305.98 457.626,262.99 407.76,241.522 365.317,204.87 314.547,185.639 164.117,128.659 120.634,283.536 248.911,358.002 Z"
       style="fill:#c39789;stroke-width:0.91313356"
       id="path7"
       inkscape:connector-curvature="0" />
  </g>
  <g
     id="id2:id2"
     transform="translate(108.8101,-70.216097)">
    <path
       d="m 587.287,761.966 c -27.017,-21.964 -63.732,-27.174 -98.503,-28.847 -34.771,-1.674 -70.617,-0.829 -103.05,-13.497 -32.432,-12.676 -61.008,-43.484 -58.046,-78.173 1.222,-14.267 8.697,-28.855 21.791,-34.647 19.305,-8.533 41.392,4.775 55.43,20.536 14.038,15.769 25.393,35.197 44.362,44.46 18.969,9.263 48.587,-0.279 48.316,-21.39 -0.074,-5.808 -2.42,-11.338 -5.103,-16.498 C 460.675,572.72 385.677,551.265 319.721,531.074 253.765,510.883 179.9,475.767 166.15,408.17 c -5.44,-26.755 7.089,-61.92 34.352,-63.273 26.337,-1.313 41.605,27.953 55.939,50.097 21.053,32.514 114.92,89.486 102.195,6.498 -3.175,-20.717 -16.86,-38.037 -29.807,-54.511 -41.334,-52.583 -81.848,-112.69 -79.625,-179.54 0.772,-23.202 8.992,-48.94 29.873,-59.08 29.963,-14.54 64.045,11.568 82.177,39.504 37.273,57.424 47.545,127.523 62.625,194.3 12.462,55.183 32.317,139.288 82.636,173.099 36.56,24.564 56.348,-7.212 43.106,-41.63 A 593.003,593.003 0 0 1 514.325,331.376 c -3.954,-32.99 0.624,-75.383 32.13,-85.959 28.14,-9.443 56.775,15.572 68.983,42.622 31.276,69.312 6.736,155.115 8.164,228.874 0.705,36.379 6.719,201.347 63.273,199.862 25.91,-0.714 30.857,-36.592 30.562,-62.51 a 331.926,331.926 0 0 1 13.636,-97.896 c 4.094,-13.8 9.853,-28.322 22.012,-36.018 19.1,-12.077 46.118,-0.739 58.154,18.386 12.036,19.133 12.75,43.115 11.601,65.685 -5.44,106.668 -45.272,211.308 -112.14,294.6 -6.538,8.148 -14.193,16.615 -24.49,18.395 -17.36,3.011 -30.996,-13.628 -46.216,-22.505 -33.121,-19.322 -75.662,-1.337 -113.239,-8.951 -29.618,-6.006 -56.176,-32.203 -55.364,-62.412 1.625,-60.049 57.022,-41.983 86.189,-22.784 42.45,27.928 70.583,-5.57 29.708,-38.8 z"
       style="fill:#fe7e36;stroke-width:0.82045275"
       id="path10"
       inkscape:connector-curvature="0" />
  </g>
  <g
     id="id3:id3"
     transform="matrix(1.0,0,0,1.0,0.0,0.0)">
    <sodipodi:namedview
       pagecolor="#ffffff"
       bordercolor="#666666"
       borderopacity="1"
       objecttolerance="10"
       gridtolerance="10"
       guidetolerance="10"
       inkscape:pageopacity="0"
       inkscape:pageshadow="2"
       inkscape:window-width="786"
       inkscape:window-height="480"
       id="namedview6"
       showgrid="false"
       inkscape:zoom="0.236"
       inkscape:cx="500"
       inkscape:cy="500"
       inkscape:window-x="72"
       inkscape:window-y="27"
       inkscape:window-maximized="0"
       inkscape:current-layer="svg4" />
  </g>
  <g
     id="id4:id4"
     transform="translate(9.228581,37.729936)">
    <path
       d="m 757.565,767.522 c 0,0 -1.628,-51.432 -1.487,-76.242 0.142,-24.81 -10.68,-77.571 -10.68,-77.571 0,0 -1.89,-35.108 -37.163,-43.82 -39.228,-9.9 -55.87,25.816 -63.709,37.889 -7.839,12.072 -110.682,228.767 -110.682,228.767 l -6.553,-75.438 c 0,0 -1.06,-36.33 -32.173,-46.19 -31.122,-9.862 -54.108,15.665 -54.108,15.665 -3.013,-114.507 -3.108,-272.502 -8.874,-325.491 -5.767,-52.99 -69.035,-65.099 -98.266,-11.264 l -118.714,208.453 9.396,-91.122 c 0,0 4.672,-27.516 -29.455,-34.176 -34.126,-6.66 -37.593,24.81 -37.593,24.81 L 125.59,753.57 c 0,0 -3.517,36.039 29.99,46.378 33.508,10.339 51.839,-24.133 51.839,-24.133 56.987,-113.613 110.04,-217.503 151.318,-292.232 4.969,-10.442 9.422,-14.909 10.008,-7.276 l 3.039,305.68 c 0,0 1.255,41.624 33.626,52.291 32.37,10.668 49.614,-12.75 49.614,-12.75 1.612,-2.143 6.292,-2.072 6.624,1.999 1.529,33.98 11,79.671 37.082,95.153 26.08,15.488 64.249,13.742 85.993,-28.16 l 101.71,-210.158 1.016,100.084 c 0,0 -0.219,37.348 27.525,47.151 27.743,9.804 46.242,-3.813 52.47,-24.481 6.227,-20.668 -9.88,-35.595 -9.88,-35.595 z"
       style="fill:#efe2cf;stroke-width:0.75801188"
       id="path15"
       inkscape:connector-curvature="0" />
  </g>
  <g
     id="id5:id5"
     transform="matrix(1.0,0,0,1.0,0.0,0.0)">
    <sodipodi:namedview
       pagecolor="#ffffff"
       bordercolor="#666666"
       borderopacity="1"
       objecttolerance="10"
       gridtolerance="10"
       guidetolerance="10"
       inkscape:pageopacity="0"
       inkscape:pageshadow="2"
       inkscape:window-width="786"
       inkscape:window-height="480"
       id="namedview18"
       showgrid="false"
       inkscape:zoom="0.236"
       inkscape:cx="500"
       inkscape:cy="500"
       inkscape:window-x="72"
       inkscape:window-y="27"
       inkscape:window-maximized="0"
       inkscape:current-layer="svg4" />
  </g>
  <g
     id="id6:id6"
     transform="matrix(1.0,0,0,1.0,0.0,0.0)">
    <sodipodi:namedview
       pagecolor="#ffffff"
       bordercolor="#666666"
       borderopacity="1"
       objecttolerance="10"
       gridtolerance="10"
       guidetolerance="10"
       inkscape:pageopacity="0"
       inkscape:pageshadow="2"
       inkscape:window-width="786"
       inkscape:window-height="480"
       id="namedview21"
       showgrid="false"
       inkscape:zoom="0.236"
       inkscape:cx="500"
       inkscape:cy="500"
       inkscape:window-x="72"
       inkscape:window-y="27"
       inkscape:window-maximized="0"
       inkscape:current-layer="svg4" />
  </g>
</svg>
