<?xml version="1.0" encoding="UTF-8" standalone="no"?>
<!-- Generator: Adobe Illustrator 25.4.1, SVG Export Plug-In . SVG Version: 6.00 Build 0)  -->

<svg
   xmlns:dc="http://purl.org/dc/elements/1.1/"
   xmlns:cc="http://creativecommons.org/ns#"
   xmlns:rdf="http://www.w3.org/1999/02/22-rdf-syntax-ns#"
   xmlns:svg="http://www.w3.org/2000/svg"
   xmlns="http://www.w3.org/2000/svg"
   xmlns:sodipodi="http://sodipodi.sourceforge.net/DTD/sodipodi-0.dtd"
   xmlns:inkscape="http://www.inkscape.org/namespaces/inkscape"
   version="1.1"
   id="Layer_1"
   x="0px"
   y="0px"
   viewBox="0 0 4200 1600"
   xml:space="preserve"
   sodipodi:docname="nftisse.svg"
   inkscape:version="0.92.5 (2060ec1f9f, 2020-04-08)"
   width="4200"
   height="1600"><metadata
   id="metadata31"><rdf:RDF><cc:Work
       rdf:about=""><dc:format>image/svg+xml</dc:format><dc:type
         rdf:resource="http://purl.org/dc/dcmitype/StillImage" /><dc:title></dc:title></cc:Work></rdf:RDF></metadata><defs
   id="defs29" /><sodipodi:namedview
   pagecolor="#ffffff"
   bordercolor="#666666"
   borderopacity="1"
   objecttolerance="10"
   gridtolerance="10"
   guidetolerance="10"
   inkscape:pageopacity="0"
   inkscape:pageshadow="2"
   inkscape:window-width="1848"
   inkscape:window-height="1016"
   id="namedview27"
   showgrid="false"
   inkscape:zoom="0.1475"
   inkscape:cx="1654.1288"
   inkscape:cy="766.10169"
   inkscape:window-x="72"
   inkscape:window-y="27"
   inkscape:window-maximized="1"
   inkscape:current-layer="Layer_1" />












<path
   inkscape:connector-curvature="0"
   d="m 2879.3902,1476.0775 c 83.4764,-78.9256 189.6459,-109.8971 293.3951,-128.6844 46.0891,-8.3528 95.466,-16.3143 130.5372,-54.4453 35.0713,-38.1329 43.7715,-118.6765 4.3793,-149.6125 -28.9556,-22.7485 -66.9416,-8.3331 -98.1264,9.2826 -51.9346,29.2966 -95.7804,69.4759 -143.7669,106.567 -27.0281,20.8907 -66.196,45.3711 -56.6726,-13.4304 8.566,-52.9592 90.9365,-114.3616 124.4974,-143.8252 60.9777,-53.5529 127.248,-97.7876 196.8975,-131.19682 65.82,-31.56513 135.0066,-53.81229 196.6415,-96.50197 19.6882,-13.63688 39.6749,-31.12087 47.2536,-57.53555 10.8393,-37.79874 -9.5519,-81.47331 -38.6876,-98.68011 -29.1356,-17.2068 -63.7582,-12.89183 -94.4043,-0.3912 -65.1185,26.56213 -117.5918,86.10674 -167.896,144.01185 -29.6144,34.09711 -120.2966,184.6002 -144.6627,98.79217 -12.5441,-44.16013 17.5206,-97.99207 37.3273,-130.74849 48.9897,-81.02903 120.1637,-150.8018 190.0503,-202.32784 75.882,-55.95306 165.7427,-88.87854 250.4452,-125.6354 65.4186,-28.38444 206.7478,-69.06507 202.8313,-181.56683 -1.7331,-50.05561 -37.6116,-90.88564 -76.8536,-102.04559 -39.2421,-11.16191 -80.4716,1.7653 -117.5919,21.22296 -71.9656,37.72404 -133.1818,98.95926 -192.082,161.47815 -49.5128,52.54827 -111.8223,145.89118 -174.5931,172.08177 -117.9489,49.20048 -6.8614,-205.91938 17.252,-250.67319 17.3863,-32.25513 36.9386,-63.43102 47.7322,-99.86942 10.7936,-36.44036 11.2723,-80.4334 -7.863,-111.10801 -23.8589,-38.225317 -70.2909,-43.153626 -106.9626,-27.026059 -55.0879,24.238529 -95.3016,86.403579 -115.6027,154.576169 -20.3012,68.17455 -23.186,142.31928 -22.8274,215.01325 0.8831,173.88639 30.3917,352.0504 -53.7419,506.63049 -17.775,32.6621 -42.0384,64.09957 -73.4476,69.56847 -105.5849,18.3587 -44.2787,-190.73949 -27.7297,-249.3523 14.9786,-53.07118 32.9638,-106.04603 17.3421,-162.96628 -17.5663,-64.00702 -59.4089,-76.63936 -100.9528,-32.29248 -62.4138,66.61172 -79.6942,179.91161 -69.9782,281.51293 9.7162,101.60131 41.8284,197.52933 62.278,296.63603 12.6325,61.2175 20.8099,125.5608 16.0119,188.8601 -2.0476,26.9179 -67.7205,212.2238 12.9611,164.1399 17.5806,-10.529 21.0626,-25.764 36.61,-40.4566 z"
   style="fill:#fe7e36;fill-opacity:1;stroke-width:1.66756558"
   id="path8-3" /><path
   inkscape:connector-curvature="0"
   d="m 1149.4685,218.46221 c 131.2788,10.65287 255.915,85.05077 327.582,195.56511 34.8371,53.70722 57.6436,115.87768 60.9649,179.79493 4.6499,89.15938 -19.4605,175.88313 -65.3934,252.74127 -55.0603,92.11168 -154.6758,167.88728 -259.0149,193.10488 C 1041.1191,1081.3942 846.09526,1000.329 754.00818,848.65473 577.633,558.14865 815.29295,191.32567 1149.4685,218.46221 Z"
   style="fill:#f7bb43;fill-opacity:1;stroke-width:2.46024799"
   id="path6-6" /><g
   id="g859"
   transform="translate(1257.9051,-3.6903322e-5)"><path
     id="path2"
     d="m 55.248,196.521 c 10.675,11.446 23.183,19.767 35.491,28.897 12.77,9.473 20.651,22.784 32.132,33.413 19.942,18.461 38.079,40.012 57.925,59.237 18.43,17.853 70.597,102.413 82.78,122.052 13.962,22.506 65.551,100.377 77.432,117.291 14.208,20.228 31.685,39.626 43.635,60.715 11.242,19.841 -23.822,-172.101 -44.324,-218.71 -9.033,-20.536 -15.513,-42.081 -22.057,-63.618 -13.466,-44.319 -31.03,-87.625 -43.923,-132.032 -1.688,-5.813 45.379,-12.147 51.135,-5.706 5.611,-7.477 20.844,-1.786 28.918,-2.63 10.958,-1.145 25.301,-2.796 36.779,-1.284 20.051,2.64 33.24,1.79 53.114,0.235 -6.508,0.509 4.992,142.583 5.642,155.636 1.347,27.076 11.191,57.348 7.624,83.435 -4.888,35.748 -12.805,67.862 -7.975,104.263 2.627,19.795 0.733,39.697 1.774,59.745 0.788,15.192 6.831,28.171 8.667,43.325 2.619,21.621 8.6,142.93 8.6,142.93 -35.474,-13.891 -71.174,-29.211 -106.568,-45.842 -15.257,-7.169 -30.146,-14.775 -44.467,-23.775 -15.017,-9.437 -27.772,-20.323 -43.793,-28.64 -18.284,-9.491 -46.385,-35.486 -68.95,-32.506 -0.55,18.101 -0.144,36.354 -0.144,54.505 0,20.699 -4.991,57.902 1.307,76.261 0,0 -146.861,0.253 -145.128,-0.003 1.973,-14.397 -1.268,-46.656 -1.27,-61.15 -0.01,-56.72 -9.561,-117.11 -1.237,-173.425 4.428,-29.957 7.487,-59.326 4.208,-89.613 -1.595,-14.731 -7.188,-28.513 -8.528,-43.202 -4.04,-44.312 1.229,-89.927 -0.253,-134.432 -0.899,-26.946 -5.625,-58.709 1.454,-85.372 z"
     style="fill:#4982ae;fill-opacity:1"
     inkscape:connector-curvature="0" /><path
     id="path4"
     d="m 543.474,465.625 c 10.548,-6.511 16.942,-18.618 28.803,-24.011 13.976,-6.355 24.628,-10.588 38.051,-18.139 23.707,-13.337 53.976,-18.307 78.639,-28.703 26.611,-11.218 58.374,-21.567 78.053,-42.259 23.28,-24.477 37.628,-53.636 54.02,-82.735 19.223,-34.125 29.182,-63.787 34.635,-102.623 -20.389,-0.692 -39.425,2.573 -59.28,3.525 -14.29,0.685 -30.232,1.28 -44.487,0.036 -9.821,-0.857 -20.123,-5.219 -29.583,-5.397 -25.929,-0.488 -52.847,14.662 -76.187,23.588 -62.716,23.985 -123.45,55.494 -177.521,96.826 18.214,20.41 10.98,42.373 26.106,63.608 6.39,8.972 26.995,17.903 9.846,29.34 1.907,9.395 12.814,23.283 17.053,34.951 5.87,16.162 14.128,31.35 21.852,51.993 z"
     style="fill:#4982ae;fill-opacity:1"
     inkscape:connector-curvature="0" /><path
     id="path6"
     d="m 543.474,463.77 c 18.509,-9.737 46.018,-10.097 66.976,-16.688 14.254,-4.483 28.742,-10.987 44.08,-13.087 20.794,-2.848 41.994,-0.198 62.645,-3.456 19.733,-3.113 39.398,-5.667 58.724,-10.382 19.151,-4.672 44.115,-2.328 61.084,-12.828 2.504,46.574 -0.729,87.965 -36.451,121.05 -36.762,34.047 -99.43,50.991 -148.725,58.188 -2.136,22.28 -1.998,45.196 -4.227,67.43 -4.408,43.971 7.67,87.67 5.319,130.576 -47.731,1 -94.551,-1.483 -142.201,-2.024 16.088,-45.706 0.635,-102.712 3.306,-151.506 8.891,-2.758 14.505,-9.729 22.217,-14.655 17.911,-11.441 38.77,-16.476 56.539,-28.007 -22.003,8.891 -44.536,6.626 -66.978,12.063 -9.3,2.253 -14.907,7.743 -24.83,5.88 -0.696,-5.53 -1.121,-12.672 -0.013,-18.174 0.886,-4.401 7.674,-6.199 8.378,-10.475 0.755,-4.584 -3.699,-6.521 -3.17,-10.019 0.716,-4.743 2.018,-11.857 1.956,-16.193 -0.055,-3.815 1.942,-6.545 1.975,-10.196 0.034,-3.684 -5.355,-6.588 -5.628,-9.787 -0.927,-10.852 -1.896,-37.948 1.836,-48.303 6.034,-16.74 25.44,-12.535 37.188,-19.407 z"
     style="fill:#4982ae;fill-opacity:1"
     inkscape:connector-curvature="0" /><path
     id="path8"
     d="m 869.641,205.324 c -0.525,16.307 1.24,32.948 1.24,49.464 0,15.966 -5.446,29.139 -4.958,45.03 0.471,15.348 6.239,26.801 6.198,42.797 -0.039,15.09 -1.066,28.75 0.276,43.252 0.763,8.243 3.313,16.154 4.577,24.219 1.411,9.006 -2.378,17.584 -0.938,26.358 13.52,-4.205 28.765,0.803 42.571,-1.101 11.134,-1.536 21.402,-2.485 33.182,-2.485 16.561,0 34.374,-4.362 50.328,-2.286 1.803,11.997 -1.066,26.437 -1.081,38.92 -0.01,7.909 1.064,14.17 2.341,21.651 3.749,21.961 1.162,41.63 -0.888,63.531 -3.304,35.307 -4.73,70.478 -9.162,105.52 -2.678,21.17 -0.783,42.737 -3.283,64.011 -3.305,28.124 -3.869,32.804 -3.785,60.602 0.019,6.383 146.599,-7.327 162.032,-2.115 0.819,-14.933 -2.956,-28.961 -3.496,-43.981 -0.417,-11.607 0.192,-20.985 2.614,-32.014 3.324,-15.138 2.429,-29.688 4.96,-44.784 2.492,-14.859 0.284,-31.745 3.734,-46.191 3.236,-13.548 11.131,-24.934 12.336,-39.519 1.142,-13.826 1.699,-26.432 2.415,-40.21 1.822,-35.068 13.811,-70.318 10.85,-105.427 -9.741,-0.489 -18.657,-2.282 -28.1,-4.076 8.189,-17.071 40.459,-17.03 55.994,-17.127 20.61,-0.129 47.073,3.152 66.487,-3.628 -2.241,-4.282 -4.326,-9.14 -7.211,-12.626 6.011,-13.916 7.844,-28.972 11.233,-43.668 3.495,-15.155 2.446,-24.134 3.464,-39.63 1.931,-29.417 15.076,-58.412 18.886,-88.689 0.567,-4.502 -3.005,-3.323 -0.827,-9.661 0.816,-2.376 6.332,-7.102 7.808,-10.682 6.002,-14.56 9.302,-35.174 11.308,-50.734 -7.497,2.739 -16.907,5.286 -25.245,6.775 -16.293,2.909 -33.138,1.393 -49.566,3.646 -27.608,3.786 -55.295,6.673 -82.964,10.221 -40.133,5.145 -80.847,8.566 -120.414,14.956 -19.502,3.149 -39.027,8.346 -58.469,10.405 -19.705,2.088 -40.196,-1.644 -59.911,0.623 -18.515,2.13 -35.562,8.653 -54.536,8.653 z"
     style="fill:#4982ae;fill-opacity:1"
     inkscape:connector-curvature="0" /><path
     id="path10"
     d="m 97.642,1118.59 c 23.318,0 46.637,-0.054 69.956,0 14.224,0.033 25.452,-4.238 38.678,-5.991 16.552,-2.194 35.405,-0.726 52.188,0.179 1.957,40.244 6.176,80.014 6.189,120.883 0.003,9.536 0.085,18.582 2.67,27.541 1.178,4.084 5.81,11.698 6.065,15.61 0.407,6.221 -3.532,8.088 -5.189,14.45 -5.187,19.913 6.906,41.222 11.776,59.566 7.882,29.693 9.27,62.539 7.325,93.79 -28.13,0.109 -56.347,0.016 -84.504,0.01 -26.697,-0.01 -53.214,1.199 -79.945,1.199 -21.491,0 -47.27,-4.373 -68.098,1.079 3.242,-7.006 1.992,-15.063 2.036,-22.655 0.081,-13.93 6.316,-25.025 7.264,-38.843 1.571,-22.899 -2.673,-46.779 0.217,-69.565 1.972,-15.549 3.73,-29.81 4.535,-45.948 0.804,-16.115 6.912,-31.129 8.409,-45.82 1.517,-14.888 -1.426,-24.729 3.639,-40.311 7.725,-23.768 11.347,-48.907 16.789,-65.17 z"
     style="fill:#4982ae;fill-opacity:1"
     inkscape:connector-curvature="0" /><path
     id="path12"
     d="m 142.098,1067.804 c -17.332,-5.561 -28.587,-13.021 -43.289,-22.478 -16.799,-10.806 -21.737,-25.038 -32.674,-40.784 -10.072,-14.5 -11.901,-32.071 -14.213,-49.411 -2.714,-20.354 5.996,-37.925 14.547,-55.166 10.022,-20.209 27.471,-28.658 42.953,-43.124 16.885,-15.776 30.229,-17.892 53.374,-17.98 18.837,-0.071 28.771,0.714 46.369,6.902 19.26,6.771 45.358,12.985 59.814,28.721 6.379,6.944 4.319,10.681 6.465,18.558 2.314,8.497 6.791,13.551 10.566,21.575 9.64,20.492 3.499,39.927 3.88,61.908 0.63,36.325 -30.011,62.013 -59.009,80.107 -7.579,4.729 -71.368,31.882 -70.911,7.761 -7.903,-0.785 -13.824,7.728 -17.872,3.411 z"
     style="fill:#4982ae;fill-opacity:1"
     inkscape:connector-curvature="0" /><path
     id="path14"
     d="m 512.933,861.585 c -29.896,15.602 -44.32,28.653 -70.643,48.521 -13.846,10.451 -57.949,53.219 -69.654,62.405 -8.952,7.025 -16.981,15.644 -26.149,22.265 -7.244,5.231 -19.109,7.88 -23.873,14.751 3.97,8.731 0.645,16.51 2.636,26.089 2.304,11.08 6.368,20.765 11.057,31.381 4.197,9.503 5.176,18.539 9.133,27.954 5.014,11.932 16.198,22.972 23.515,33.655 18.613,-2.166 116.34,75.059 141.123,91.325 15.406,10.111 29.169,22.439 44.501,32.839 10.836,7.35 24.261,12.309 33.443,21.532 -0.055,15.51 -7.219,13.452 -14.043,5.604 -31.677,0 -73.065,0.103 -101.93,-8.986 -19.102,-6.015 -52.169,7.599 -68.015,-6.284 -2.845,-0.047 -0.152,1.259 -1.377,2.662 -5.57,6.387 -5.981,22.872 -8.428,32.104 -3.257,12.288 -5.645,25.056 -8.116,37.64 -4.613,23.495 -8.101,47.204 -7.329,71.749 16.543,11.683 46.018,23.685 63.129,28.721 62.82,18.491 130.279,14.535 193.504,0.992 31.643,-6.778 55.056,-42.104 71.935,-67.06 15.708,-23.224 13.036,-37.52 12.681,-61.686 -0.215,-14.627 3.035,-30.695 2.799,-46.195 -0.237,-15.533 -7.591,-25.37 -11.294,-40.542 -5.014,-20.544 -11.034,-35.044 -26.036,-50.516 -15.969,-16.469 -32.934,-27.889 -54.26,-36.706 -27.528,-11.38 -53.903,-28.145 -78.432,-44.166 -5.244,-3.425 -9.082,-8.611 -14.567,-11.242 -5.275,-2.53 -24.591,-7.446 -30.273,-10.852 0,0 98.427,-76.937 106.733,-86.629 z"
     style="fill:#4982ae;fill-opacity:1"
     inkscape:connector-curvature="0" /><path
     id="path16"
     d="m 913.164,861.585 c -29.896,15.602 -44.32,28.653 -70.643,48.521 -13.846,10.451 -57.949,53.219 -69.654,62.405 -8.952,7.025 -16.981,15.644 -26.149,22.265 -7.244,5.231 -19.109,7.88 -23.873,14.751 3.97,8.731 0.645,16.51 2.636,26.089 2.304,11.08 6.368,20.765 11.057,31.381 4.197,9.503 5.176,18.539 9.133,27.954 5.014,11.932 16.198,22.972 23.515,33.655 18.613,-2.166 116.34,75.059 141.123,91.325 15.406,10.111 29.169,22.439 44.501,32.839 10.836,7.35 24.261,12.309 33.443,21.532 -0.055,15.51 -7.219,13.452 -14.043,5.604 -31.677,0 -73.065,0.103 -101.93,-8.986 -19.101,-6.015 -52.169,7.599 -68.015,-6.284 -2.845,-0.047 -0.152,1.259 -1.377,2.662 -5.57,6.387 -5.981,22.872 -8.428,32.104 -3.257,12.288 -5.645,25.056 -8.116,37.64 -4.613,23.495 -8.101,47.204 -7.329,71.749 16.543,11.683 46.018,23.685 63.129,28.721 62.82,18.491 130.279,14.535 193.504,0.992 31.643,-6.778 55.056,-42.104 71.935,-67.06 15.708,-23.224 13.036,-37.52 12.681,-61.686 -0.215,-14.627 3.035,-30.695 2.799,-46.195 -0.237,-15.533 -7.591,-25.37 -11.294,-40.542 -5.014,-20.544 -11.034,-35.044 -26.036,-50.516 -15.969,-16.469 -32.934,-27.889 -54.26,-36.706 -27.528,-11.38 -53.903,-28.145 -78.432,-44.166 -5.244,-3.425 -9.082,-8.611 -14.567,-11.242 -5.275,-2.53 -24.591,-7.446 -30.273,-10.852 0,0 98.427,-76.937 106.733,-86.629 z"
     style="fill:#4982ae;fill-opacity:1"
     inkscape:connector-curvature="0" /><path
     id="path18"
     d="m 1169.135,886.795 c -0.016,58.75 5.187,115.758 5.187,174.199 19.976,-9.399 54.11,-1.643 76.024,-1.725 25.397,-0.095 47.718,-6.899 74.043,-6.899 46.95,0 93.407,-1.647 140.389,-1.725 28.728,-0.047 57.405,1.725 86.437,1.725 1.362,0 -4.576,-71.016 -5.317,-78.202 -0.798,-7.725 2.042,-26.732 -4.499,-30.695 6.011,-7.21 2.167,-15.561 2.12,-24.129 -0.028,-4.944 2.133,-9.021 2.382,-14.227 0.534,-11.189 -3.14,-26.165 -5.058,-37.295 -50.64,0 -103.009,-1.725 -153.649,-1.725 -32.7,0 -61.161,1.458 -93.219,7.746 -33.861,6.642 -115.696,13.109 -124.84,12.952 z"
     style="fill:#4982ae;fill-opacity:1"
     inkscape:connector-curvature="0" /><path
     id="path20"
     d="m 1169.135,1207.051 c -0.012,-41.471 3.661,-75.571 3.661,-116.824 0,0 88.869,-1.868 107.451,-1.868 33.141,0 64.413,2.978 97.576,3.033 20.279,0.033 40.521,-1.218 61.015,-1.218 0,23.143 -2.632,46.402 -5.998,68.741 -3.239,21.498 2.317,40.403 -1.325,61.527 -35.746,0 -72.712,1.217 -108.458,1.217 -23.083,0 -43.172,-1.029 -65.802,-5.468 -23.899,-4.686 -81.665,-9.251 -88.12,-9.14 z"
     style="fill:#4982ae;fill-opacity:1"
     inkscape:connector-curvature="0" /><path
     id="path22"
     d="m 1169.135,1418.953 c 1.737,-0.03 -0.093,-75.194 1.181,-83.298 0.765,-4.855 4.017,-7.976 4.527,-13.474 0.41,-4.415 -0.343,-8.461 -1.13,-12.308 -4.321,-21.107 0.609,-43.819 0.609,-65.12 19.976,9.399 54.11,1.643 76.024,1.725 25.397,0.095 47.718,6.899 74.043,6.899 46.95,0 93.407,1.647 140.389,1.725 28.728,0.047 57.405,-1.725 86.437,-1.725 0,32.785 -3.729,65.736 -8.497,97.383 -4.588,30.456 3.282,57.237 -1.876,87.164 -50.64,0 -103.009,1.725 -153.649,1.725 -32.7,0 -61.161,-1.458 -93.219,-7.746 -33.859,-6.64 -115.693,-13.107 -124.839,-12.95 z"
     style="fill:#4982ae;fill-opacity:1"
     inkscape:connector-curvature="0" /><path
     id="path24"
     d="m 1247.698,486.322 c -0.013,58.75 4.121,115.758 4.121,174.199 15.871,-9.398 42.99,-1.643 60.4,-1.725 20.178,-0.095 37.911,-6.899 58.826,-6.899 37.302,0 74.211,-1.647 111.538,-1.725 22.824,-0.047 45.607,1.725 68.673,1.725 1.082,0 -3.635,-71.016 -4.224,-78.202 -0.634,-7.725 1.622,-26.732 -3.575,-30.695 4.776,-7.21 1.722,-15.56 1.684,-24.129 -0.022,-4.944 1.695,-9.021 1.892,-14.227 0.424,-11.189 -2.495,-26.165 -4.019,-37.295 -40.233,0 -81.84,-1.725 -122.073,-1.725 -25.98,0 -48.592,1.458 -74.061,7.746 -26.9,6.643 -91.917,13.11 -99.182,12.952 z"
     style="fill:#4982ae;fill-opacity:1"
     inkscape:connector-curvature="0" /><path
     style="fill:#4982ae;fill-opacity:1"
     d="m 55.248,196.521 c 10.675,11.446 23.183,19.767 35.491,28.897 12.77,9.473 20.651,22.784 32.132,33.413 19.942,18.461 38.079,40.012 57.925,59.237 18.43,17.853 70.597,102.413 82.78,122.052 13.962,22.506 65.551,100.377 77.432,117.291 14.208,20.228 31.685,39.626 43.635,60.715 11.242,19.841 -23.822,-172.101 -44.324,-218.71 -9.033,-20.536 -15.513,-42.081 -22.057,-63.618 -13.466,-44.319 -31.03,-87.625 -43.923,-132.032 -1.688,-5.813 45.379,-12.147 51.135,-5.706 5.611,-7.477 20.844,-1.786 28.918,-2.63 10.958,-1.145 25.301,-2.796 36.779,-1.284 20.051,2.64 33.24,1.79 53.114,0.235 -6.508,0.509 4.992,142.583 5.642,155.636 1.347,27.076 11.191,57.348 7.624,83.435 -4.888,35.748 -12.805,67.862 -7.975,104.263 2.627,19.795 0.733,39.697 1.774,59.745 0.788,15.192 6.831,28.171 8.667,43.325 2.619,21.621 8.6,142.93 8.6,142.93 -35.474,-13.891 -71.174,-29.211 -106.568,-45.842 -15.257,-7.169 -30.146,-14.775 -44.467,-23.775 -15.017,-9.437 -27.772,-20.323 -43.793,-28.64 -18.284,-9.491 -46.385,-35.486 -68.95,-32.506 -0.55,18.101 -0.144,36.354 -0.144,54.505 0,20.699 -4.991,57.902 1.307,76.261 0,0 -146.861,0.253 -145.128,-0.003 1.973,-14.397 -1.268,-46.656 -1.27,-61.15 -0.01,-56.72 -9.561,-117.11 -1.237,-173.425 4.428,-29.957 7.487,-59.326 4.208,-89.613 -1.595,-14.731 -7.188,-28.513 -8.528,-43.202 -4.04,-44.312 1.229,-89.927 -0.253,-134.432 -0.899,-26.946 -5.625,-58.709 1.454,-85.372 z"
     id="path840"
     inkscape:connector-curvature="0" /><path
     style="fill:#4982ae;fill-opacity:1"
     d="m 543.474,465.625 c 10.548,-6.511 16.942,-18.618 28.803,-24.011 13.976,-6.355 24.628,-10.588 38.051,-18.139 23.707,-13.337 53.976,-18.307 78.639,-28.703 26.611,-11.218 58.374,-21.567 78.053,-42.259 23.28,-24.477 37.628,-53.636 54.02,-82.735 19.223,-34.125 29.182,-63.787 34.635,-102.623 -20.389,-0.692 -39.425,2.573 -59.28,3.525 -14.29,0.685 -30.232,1.28 -44.487,0.036 -9.821,-0.857 -20.123,-5.219 -29.583,-5.397 -25.929,-0.488 -52.847,14.662 -76.187,23.588 -62.716,23.985 -123.45,55.494 -177.521,96.826 18.214,20.41 10.98,42.373 26.106,63.608 6.39,8.972 26.995,17.903 9.846,29.34 1.907,9.395 12.814,23.283 17.053,34.951 5.87,16.162 14.128,31.35 21.852,51.993 z"
     id="path842"
     inkscape:connector-curvature="0" /><path
     style="fill:#4982ae;fill-opacity:1"
     d="m 543.474,463.77 c 18.509,-9.737 46.018,-10.097 66.976,-16.688 14.254,-4.483 28.742,-10.987 44.08,-13.087 20.794,-2.848 41.994,-0.198 62.645,-3.456 19.733,-3.113 39.398,-5.667 58.724,-10.382 19.151,-4.672 44.115,-2.328 61.084,-12.828 2.504,46.574 -0.729,87.965 -36.451,121.05 -36.762,34.047 -99.43,50.991 -148.725,58.188 -2.136,22.28 -1.998,45.196 -4.227,67.43 -4.408,43.971 7.67,87.67 5.319,130.576 -47.731,1 -94.551,-1.483 -142.201,-2.024 16.088,-45.706 0.635,-102.712 3.306,-151.506 8.891,-2.758 14.505,-9.729 22.217,-14.655 17.911,-11.441 38.77,-16.476 56.539,-28.007 -22.003,8.891 -44.536,6.626 -66.978,12.063 -9.3,2.253 -14.907,7.743 -24.83,5.88 -0.696,-5.53 -1.121,-12.672 -0.013,-18.174 0.886,-4.401 7.674,-6.199 8.378,-10.475 0.755,-4.584 -3.699,-6.521 -3.17,-10.019 0.716,-4.743 2.018,-11.857 1.956,-16.193 -0.055,-3.815 1.942,-6.545 1.975,-10.196 0.034,-3.684 -5.355,-6.588 -5.628,-9.787 -0.927,-10.852 -1.896,-37.948 1.836,-48.303 6.034,-16.74 25.44,-12.535 37.188,-19.407 z"
     id="path844"
     inkscape:connector-curvature="0" /><path
     style="fill:#4982ae;fill-opacity:1"
     d="m 869.641,205.324 c -0.525,16.307 1.24,32.948 1.24,49.464 0,15.966 -5.446,29.139 -4.958,45.03 0.471,15.348 6.239,26.801 6.198,42.797 -0.039,15.09 -1.066,28.75 0.276,43.252 0.763,8.243 3.313,16.154 4.577,24.219 1.411,9.006 -2.378,17.584 -0.938,26.358 13.52,-4.205 28.765,0.803 42.571,-1.101 11.134,-1.536 21.402,-2.485 33.182,-2.485 16.561,0 34.374,-4.362 50.328,-2.286 1.803,11.997 -1.066,26.437 -1.081,38.92 -0.01,7.909 1.064,14.17 2.341,21.651 3.749,21.961 1.162,41.63 -0.888,63.531 -3.304,35.307 -4.73,70.478 -9.162,105.52 -2.678,21.17 -0.783,42.737 -3.283,64.011 -3.305,28.124 -3.869,32.804 -3.785,60.602 0.019,6.383 146.599,-7.327 162.032,-2.115 0.819,-14.933 -2.956,-28.961 -3.496,-43.981 -0.417,-11.607 0.192,-20.985 2.614,-32.014 3.324,-15.138 2.429,-29.688 4.96,-44.784 2.492,-14.859 0.284,-31.745 3.734,-46.191 3.236,-13.548 11.131,-24.934 12.336,-39.519 1.142,-13.826 1.699,-26.432 2.415,-40.21 1.822,-35.068 13.811,-70.318 10.85,-105.427 -9.741,-0.489 -18.657,-2.282 -28.1,-4.076 8.189,-17.071 40.459,-17.03 55.994,-17.127 20.61,-0.129 47.073,3.152 66.487,-3.628 -2.241,-4.282 -4.326,-9.14 -7.211,-12.626 6.011,-13.916 7.844,-28.972 11.233,-43.668 3.495,-15.155 2.446,-24.134 3.464,-39.63 1.931,-29.417 15.076,-58.412 18.886,-88.689 0.567,-4.502 -3.005,-3.323 -0.827,-9.661 0.816,-2.376 6.332,-7.102 7.808,-10.682 6.002,-14.56 9.302,-35.174 11.308,-50.734 -7.497,2.739 -16.907,5.286 -25.245,6.775 -16.293,2.909 -33.138,1.393 -49.566,3.646 -27.608,3.786 -55.295,6.673 -82.964,10.221 -40.133,5.145 -80.847,8.566 -120.414,14.956 -19.502,3.149 -39.027,8.346 -58.469,10.405 -19.705,2.088 -40.196,-1.644 -59.911,0.623 -18.515,2.13 -35.562,8.653 -54.536,8.653 z"
     id="path846"
     inkscape:connector-curvature="0" /><path
     style="fill:#4982ae;fill-opacity:1"
     d="m 97.642,1118.59 c 23.318,0 46.637,-0.054 69.956,0 14.224,0.033 25.452,-4.238 38.678,-5.991 16.552,-2.194 35.405,-0.726 52.188,0.179 1.957,40.244 6.176,80.014 6.189,120.883 0.003,9.536 0.085,18.582 2.67,27.541 1.178,4.084 5.81,11.698 6.065,15.61 0.407,6.221 -3.532,8.088 -5.189,14.45 -5.187,19.913 6.906,41.222 11.776,59.566 7.882,29.693 9.27,62.539 7.325,93.79 -28.13,0.109 -56.347,0.016 -84.504,0.01 -26.697,-0.01 -53.214,1.199 -79.945,1.199 -21.491,0 -47.27,-4.373 -68.098,1.079 3.242,-7.006 1.992,-15.063 2.036,-22.655 0.081,-13.93 6.316,-25.025 7.264,-38.843 1.571,-22.899 -2.673,-46.779 0.217,-69.565 1.972,-15.549 3.73,-29.81 4.535,-45.948 0.804,-16.115 6.912,-31.129 8.409,-45.82 1.517,-14.888 -1.426,-24.729 3.639,-40.311 7.725,-23.768 11.347,-48.907 16.789,-65.17 z"
     id="path848"
     inkscape:connector-curvature="0" /><path
     style="fill:#4982ae;fill-opacity:1"
     d="m 142.098,1067.804 c -17.332,-5.561 -28.587,-13.021 -43.289,-22.478 -16.799,-10.806 -21.737,-25.038 -32.674,-40.784 -10.072,-14.5 -11.901,-32.071 -14.213,-49.411 -2.714,-20.354 5.996,-37.925 14.547,-55.166 10.022,-20.209 27.471,-28.658 42.953,-43.124 16.885,-15.776 30.229,-17.892 53.374,-17.98 18.837,-0.071 28.771,0.714 46.369,6.902 19.26,6.771 45.358,12.985 59.814,28.721 6.379,6.944 4.319,10.681 6.465,18.558 2.314,8.497 6.791,13.551 10.566,21.575 9.64,20.492 3.499,39.927 3.88,61.908 0.63,36.325 -30.011,62.013 -59.009,80.107 -7.579,4.729 -71.368,31.882 -70.911,7.761 -7.903,-0.785 -13.824,7.728 -17.872,3.411 z"
     id="path850"
     inkscape:connector-curvature="0" /><path
     style="fill:#4982ae;fill-opacity:1"
     d="m 512.933,861.585 c -29.896,15.602 -44.32,28.653 -70.643,48.521 -13.846,10.451 -57.949,53.219 -69.654,62.405 -8.952,7.025 -16.981,15.644 -26.149,22.265 -7.244,5.231 -19.109,7.88 -23.873,14.751 3.97,8.731 0.645,16.51 2.636,26.089 2.304,11.08 6.368,20.765 11.057,31.381 4.197,9.503 5.176,18.539 9.133,27.954 5.014,11.932 16.198,22.972 23.515,33.655 18.613,-2.166 116.34,75.059 141.123,91.325 15.406,10.111 29.169,22.439 44.501,32.839 10.836,7.35 24.261,12.309 33.443,21.532 -0.055,15.51 -7.219,13.452 -14.043,5.604 -31.677,0 -73.065,0.103 -101.93,-8.986 -19.102,-6.015 -52.169,7.599 -68.015,-6.284 -2.845,-0.047 -0.152,1.259 -1.377,2.662 -5.57,6.387 -5.981,22.872 -8.428,32.104 -3.257,12.288 -5.645,25.056 -8.116,37.64 -4.613,23.495 -8.101,47.204 -7.329,71.749 16.543,11.683 46.018,23.685 63.129,28.721 62.82,18.491 130.279,14.535 193.504,0.992 31.643,-6.778 55.056,-42.104 71.935,-67.06 15.708,-23.224 13.036,-37.52 12.681,-61.686 -0.215,-14.627 3.035,-30.695 2.799,-46.195 -0.237,-15.533 -7.591,-25.37 -11.294,-40.542 -5.014,-20.544 -11.034,-35.044 -26.036,-50.516 -15.969,-16.469 -32.934,-27.889 -54.26,-36.706 -27.528,-11.38 -53.903,-28.145 -78.432,-44.166 -5.244,-3.425 -9.082,-8.611 -14.567,-11.242 -5.275,-2.53 -24.591,-7.446 -30.273,-10.852 0,0 98.427,-76.937 106.733,-86.629 z"
     id="path852"
     inkscape:connector-curvature="0" /><path
     style="fill:#4982ae;fill-opacity:1"
     d="m 913.164,861.585 c -29.896,15.602 -44.32,28.653 -70.643,48.521 -13.846,10.451 -57.949,53.219 -69.654,62.405 -8.952,7.025 -16.981,15.644 -26.149,22.265 -7.244,5.231 -19.109,7.88 -23.873,14.751 3.97,8.731 0.645,16.51 2.636,26.089 2.304,11.08 6.368,20.765 11.057,31.381 4.197,9.503 5.176,18.539 9.133,27.954 5.014,11.932 16.198,22.972 23.515,33.655 18.613,-2.166 116.34,75.059 141.123,91.325 15.406,10.111 29.169,22.439 44.501,32.839 10.836,7.35 24.261,12.309 33.443,21.532 -0.055,15.51 -7.219,13.452 -14.043,5.604 -31.677,0 -73.065,0.103 -101.93,-8.986 -19.101,-6.015 -52.169,7.599 -68.015,-6.284 -2.845,-0.047 -0.152,1.259 -1.377,2.662 -5.57,6.387 -5.981,22.872 -8.428,32.104 -3.257,12.288 -5.645,25.056 -8.116,37.64 -4.613,23.495 -8.101,47.204 -7.329,71.749 16.543,11.683 46.018,23.685 63.129,28.721 62.82,18.491 130.279,14.535 193.504,0.992 31.643,-6.778 55.056,-42.104 71.935,-67.06 15.708,-23.224 13.036,-37.52 12.681,-61.686 -0.215,-14.627 3.035,-30.695 2.799,-46.195 -0.237,-15.533 -7.591,-25.37 -11.294,-40.542 -5.014,-20.544 -11.034,-35.044 -26.036,-50.516 -15.969,-16.469 -32.934,-27.889 -54.26,-36.706 -27.528,-11.38 -53.903,-28.145 -78.432,-44.166 -5.244,-3.425 -9.082,-8.611 -14.567,-11.242 -5.275,-2.53 -24.591,-7.446 -30.273,-10.852 0,0 98.427,-76.937 106.733,-86.629 z"
     id="path854"
     inkscape:connector-curvature="0" /><path
     style="fill:#4982ae;fill-opacity:1"
     d="m 1169.135,886.795 c -0.016,58.75 5.187,115.758 5.187,174.199 19.976,-9.399 54.11,-1.643 76.024,-1.725 25.397,-0.095 47.718,-6.899 74.043,-6.899 46.95,0 93.407,-1.647 140.389,-1.725 28.728,-0.047 57.405,1.725 86.437,1.725 1.362,0 -4.576,-71.016 -5.317,-78.202 -0.798,-7.725 2.042,-26.732 -4.499,-30.695 6.011,-7.21 2.167,-15.561 2.12,-24.129 -0.028,-4.944 2.133,-9.021 2.382,-14.227 0.534,-11.189 -3.14,-26.165 -5.058,-37.295 -50.64,0 -103.009,-1.725 -153.649,-1.725 -32.7,0 -61.161,1.458 -93.219,7.746 -33.861,6.642 -115.696,13.109 -124.84,12.952 z"
     id="path856"
     inkscape:connector-curvature="0" /><path
     style="fill:#4982ae;fill-opacity:1"
     d="m 1169.135,1207.051 c -0.012,-41.471 3.661,-75.571 3.661,-116.824 0,0 88.869,-1.868 107.451,-1.868 33.141,0 64.413,2.978 97.576,3.033 20.279,0.033 40.521,-1.218 61.015,-1.218 0,23.143 -2.632,46.402 -5.998,68.741 -3.239,21.498 2.317,40.403 -1.325,61.527 -35.746,0 -72.712,1.217 -108.458,1.217 -23.083,0 -43.172,-1.029 -65.802,-5.468 -23.899,-4.686 -81.665,-9.251 -88.12,-9.14 z"
     id="path858"
     inkscape:connector-curvature="0" /><path
     style="fill:#4982ae;fill-opacity:1"
     d="m 1169.135,1418.953 c 1.737,-0.03 -0.093,-75.194 1.181,-83.298 0.765,-4.855 4.017,-7.976 4.527,-13.474 0.41,-4.415 -0.343,-8.461 -1.13,-12.308 -4.321,-21.107 0.609,-43.819 0.609,-65.12 19.976,9.399 54.11,1.643 76.024,1.725 25.397,0.095 47.718,6.899 74.043,6.899 46.95,0 93.407,1.647 140.389,1.725 28.728,0.047 57.405,-1.725 86.437,-1.725 0,32.785 -3.729,65.736 -8.497,97.383 -4.588,30.456 3.282,57.237 -1.876,87.164 -50.64,0 -103.009,1.725 -153.649,1.725 -32.7,0 -61.161,-1.458 -93.219,-7.746 -33.859,-6.64 -115.693,-13.107 -124.839,-12.95 z"
     id="path860"
     inkscape:connector-curvature="0" /><path
     style="fill:#4982ae;fill-opacity:1"
     d="m 1247.698,486.322 c -0.013,58.75 4.121,115.758 4.121,174.199 15.871,-9.398 42.99,-1.643 60.4,-1.725 20.178,-0.095 37.911,-6.899 58.826,-6.899 37.302,0 74.211,-1.647 111.538,-1.725 22.824,-0.047 45.607,1.725 68.673,1.725 1.082,0 -3.635,-71.016 -4.224,-78.202 -0.634,-7.725 1.622,-26.732 -3.575,-30.695 4.776,-7.21 1.722,-15.56 1.684,-24.129 -0.022,-4.944 1.695,-9.021 1.892,-14.227 0.424,-11.189 -2.495,-26.165 -4.019,-37.295 -40.233,0 -81.84,-1.725 -122.073,-1.725 -25.98,0 -48.592,1.458 -74.061,7.746 -26.9,6.643 -91.917,13.11 -99.182,12.952 z"
     id="path862"
     inkscape:connector-curvature="0" /></g><g
   id="id1:id2:id2"
   transform="matrix(1.5721182,0,0,1.5721182,-184.1861,9.9560791)"
   style="opacity:0.98999999"><path
     inkscape:connector-curvature="0"
     d="m 545.634,865.382 c -19.48,-59.29 -8.27,-123.82 -13.8,-185.98 -1.97,-22.09 -6.07,-43.97 -7.67,-66.09 -3.79,-52.22 6.41,-104.55 4.69,-156.88 -0.99,-30.15 -5.61,-60.3 -4,-90.5 1.49,-28.02 11.29,-47.41 22.77,-71.93 12.48,-26.65 27.13,-52.64 28.9,-82.55 0.16,-2.73 0.3,-5.6 -0.89,-8.07 -5.32,-11.05 -18.49,-11.02 -19.95,-24.38 -1.06,-9.68 9.17,-25.96 13.03,-34.61 10.3,-23.03 22.67,-45.28 27.4,-70.35 1.08,-5.75 1.67,-12.31 -2.01,-16.86 -3.46,-4.28 -9.61,-5.27 -15.1,-4.87 -24.77,1.83 -42.21,24.27 -56.32,44.71 -13.47,19.5 -21.76,34.29 -35.23,53.8 -0.65,15.67 -13.65,36.09 -30.33,26.4 -17.68,-10.27 -14.26,-52.77 -40.76,-51.85 -7.83,0.27 -13.54,7.32 -17.64,13.99 -26.39,42.97 -32.23,95.7 -28.95,146.02 3.27,50.32 14.92,99.71 20.86,149.78 6.19,52.2 6.18,105.24 17.12,156.65 14.53,68.31 47.74,130.95 79.15,193.33 5.68,11.29 11.04,25.85 2.97,35.57 -8,9.63 -24.56,6.67 -33.06,-2.52 -8.5,-9.2 -11.16,-22.18 -13.83,-34.41 -20.45,-93.72 -60.91,-183.02 -117.89,-260.19 -19.93,-26.99 -42.42,-53.64 -50.57,-86.18 -4.25,-16.97 -4.33,-34.66 -4.39,-52.15 0,-20.65 -3.83,-44.61 -1.21,-64.85 2.88,-22.2 13.47,-43.17 15.83,-66.06 1.07,-10.41 0.14,-23.29 -9.25,-27.93 -29.09,11.26 -37.39,49.13 -32.99,80 0.61,4.26 1.15,9.23 -1.9,12.26 -5.28,5.25 -13.91,-0.99 -18.07,-7.17 -4.15,-6.18 -10.64,-13.74 -17.41,-10.63 -2.95,1.36 -4.68,4.43 -6.03,7.38 -13.37,29.05 -12.71,63.03 -12.69,94.28 0,5.23 -0.12,10.85 -3.2,15.07 -10.47,14.33 -21.9,-10.7 -32.19,-9.08 -6.28,0.99 -7.51,9.45 -6.93,15.79 7.3,80.55 51.6,153.16 102.82,215.76 70.74,86.46 157.18,160.78 215.35,256.15 15.4,25.25 24.57,34.76 53.24,37.14 2.9,0.24 5.62,1.47 8.26,2.68 9.24,4.22 18.48,8.44 27.73,12.65 59.06,26.95 60.52,-85.74 97.62,-108.4 57,-34.81 84.35,-108.38 144.79,-136.79 22.78,-10.71 53.97,-12.54 71.96,-31.28 8.33,-8.68 34.53,-51.01 11.39,-53.03 -11.95,-1.04 -21.91,21.41 -21.89,-5.82 0.01,-13.02 8.02,-27.23 11.6,-38.64 1.53,-4.88 3.08,-9.9 2.7,-14.99 -1.89,-25.73 -28.76,-11.02 -34.52,2.82 -6.35,15.24 -5.22,32.48 -8.78,48.34 -2.54,11.3 -17.82,31.09 -29.68,18.58 -7.88,-8.31 2.17,-48.07 3.2,-59.16 4.71,-50.64 9.43,-101.44 7.75,-152.28 -0.28,-8.34 -4.93,-19.82 -12.82,-17.1 -1.51,0.52 -2.78,1.55 -3.99,2.58 -21.56,18.48 -33.91,45.56 -41.65,72.88 -7.73,27.32 -11.49,55.65 -19.46,82.9 -7.96,27.22 -17.16,52.78 -33.78,75.54 -8.87,12.15 -11.57,26.05 -14.82,40.36 -3.47,15.28 -8.98,26.11 -15.62,40.56 -11.52,25.08 -23.97,49.76 -38.59,73.19 -11.59,18.57 -26.38,37.61 -47.7,42.55 23.34,-82.4 52.06,-163.27 85.92,-241.93 13.5,-31.35 27.87,-62.54 36.48,-95.58 9.14,-35.09 11.57,-71.53 13.96,-107.72 2.87,-43.48 5.75,-86.97 8.62,-130.45 0.26,-3.86 -0.75,-7.69 -0.89,-11.56 -4.04,-3.31 -10.26,-2.55 -14.61,0.33 -17.23,11.44 -10.12,40.51 -25.82,49.6 -13.13,-12.6 0.5,-35.47 -0.87,-50.33 -3.17,-34.38 -6.67,-68.73 -10.5,-103.04 -2.02,-18.1 -15.21,-8.79 -19.95,1.9 -15.72,35.53 -31.62,71.7 -36.37,110.26 -2.73,22.16 -1.75,44.92 -7.68,66.45 -12.5,45.35 -16.43,93.31 -20.91,140.14 -12.67,131.98 -28.33,273.85 -40.95,405.8 z"
     style="fill:#529695"
     id="id1:path10" /></g><g
   id="id1:id4:id4"
   transform="matrix(2.1604849,0,0,2.1604849,2556.1273,-241.17173)"
   style="fill:#b2c648;fill-opacity:1"><style
     id="id1:style15">.st0{fill:#a0a3aa}</style><g
     id="id1:g21"
     style="fill:#b2c648;fill-opacity:1"><path
       inkscape:connector-curvature="0"
       class="st0"
       d="m 473.91,664.99 -3.01,-24.37 -3.01,-24.37 -39.38,4.86 3,24.37 3.01,24.37 3.01,24.36 3,24.37 39.39,-4.85 -3.01,-24.37 z m 216.33,-26.68 -3,-24.37 -3.01,-24.37 -42.49,5.24 3.01,24.37 3,24.37 3.01,24.37 3,24.37 42.49,-5.24 -3,-24.37 z"
       id="id1:path17"
       style="fill:#b2c648;fill-opacity:1" /><path
       inkscape:connector-curvature="0"
       class="st0"
       d="m 740.56,693.95 -3.76,-30.46 -3.76,-30.46 -3.76,-30.46 -3.76,-30.46 -3.76,-30.46 -182.76,22.53 3.76,30.46 3.76,30.46 -30.46,3.76 -3.76,-30.46 -3.76,-30.46 -182.77,22.54 3.76,30.46 3.76,30.46 -91.39,11.27 3.76,30.46 3.76,30.46 3.76,30.46 30.46,-3.76 -3.76,-30.46 -3.76,-30.46 60.92,-7.51 3.76,30.46 3.76,30.46 3.76,30.46 182.77,-22.54 -3.76,-30.46 -3.76,-30.46 -3.76,-30.46 30.46,-3.76 3.76,30.46 3.76,30.46 3.76,30.46 182.77,-22.54 z m -365.54,45.08 -3.76,-30.46 -3.72,-30.18 -7.55,-61.2 121.85,-15.03 3.76,30.46 3.76,30.46 3.76,30.46 3.76,30.46 z m 213.23,-26.29 -3.76,-30.46 -3.76,-30.46 -3.76,-30.46 -3.76,-30.46 121.85,-15.03 3.76,30.46 3.76,30.46 3.76,30.46 3.76,30.46 z"
       id="id1:path19"
       style="fill:#b2c648;fill-opacity:1" /></g></g></svg>